<svg width="390" height="746" viewBox="0 0 390 746" fill="none" xmlns="http://www.w3.org/2000/svg">
<g opacity="0.35" clip-path="url(#clip0_647_3009)">
<path d="M741.218 557.127C646.742 495.736 531.244 456.03 414.908 461.291C345.699 464.456 276.808 483.2 208.169 473.964C123.706 462.588 52.975 410.463 -3.94204 353.46C-60.859 296.458 -109.352 232.2 -174.873 183.048C-209.497 157.054 -251.853 134.867 -296.911 137.252" stroke="url(#paint0_linear_647_3009)" stroke-width="0.22" stroke-linecap="round" stroke-linejoin="round"/>
<path d="M-297.355 144.776C-283.534 144.313 -269.215 146.132 -255.081 150.145C-240.848 154.333 -226.924 160.107 -213.675 167.316C-200.475 174.466 -187.765 182.503 -175.687 191.34C-158.372 204.08 -141.794 217.662 -126.061 232C-108.073 248.349 -91.0294 265.395 -74.1741 282.948C-57.0037 300.837 -40.4062 319.507 -23.0281 337.374C-16.499 344.096 -9.86088 350.708 -3.11366 357.209C24.0945 383.44 54.5318 408.191 87.7459 428.619C124.666 451.301 165.71 468.5 209.644 475.174C214.164 475.868 218.668 476.454 223.154 476.931C256.033 480.513 287.882 478.725 321.265 475.457C352.189 472.316 383.415 468.082 414.722 466.868C424.672 466.463 434.617 466.37 444.556 466.589C501.212 467.86 559.324 479.029 615.694 499.481C659.438 515.158 701.464 536.61 740.161 563.016" stroke="url(#paint1_linear_647_3009)" stroke-width="0.25" stroke-linecap="round" stroke-linejoin="round"/>
<path d="M-297.859 152.3C-284.056 152.108 -269.811 154.177 -255.802 158.407C-241.675 162.897 -227.865 168.804 -214.671 175.999C-201.485 183.115 -188.737 191.028 -176.538 199.669C-159.206 211.976 -142.52 225.063 -126.569 238.858C-108.386 254.432 -91.2301 270.714 -74.2003 287.681C-56.6962 305.124 -40.1431 323.922 -22.5341 341.521C-15.9448 348.148 -9.19834 354.581 -2.34727 360.886C25.1722 386.243 55.8734 409.892 89.1361 429.744C126.152 451.795 167.622 468.932 211.045 476.306C215.539 477.063 220.004 477.741 224.44 478.339C257.059 482.706 287.487 482.439 320.879 479.828C351.727 477.412 383.029 473.436 414.496 472.386C424.453 472.039 434.404 471.986 444.351 472.225C466.052 472.754 488.004 474.688 510.039 478.01C545.427 483.334 580.837 492.288 615.544 504.687C660.178 520.638 702.664 542.367 739.061 568.927" stroke="url(#paint2_linear_647_3009)" stroke-width="0.27" stroke-linecap="round" stroke-linejoin="round"/>
<path d="M-298.316 159.768C-284.535 159.833 -270.366 162.146 -256.484 166.598C-242.474 171.386 -228.781 177.411 -215.633 184.572C-202.476 191.683 -189.697 199.487 -177.381 207.932C-160.043 219.84 -143.241 232.431 -127.042 245.654C-108.719 260.573 -91.0795 276.167 -74.1907 292.376C-56.3591 309.358 -39.8451 328.276 -22.0155 345.623C-15.3032 352.167 -8.51535 358.4 -1.59843 364.565C26.6288 389.492 57.5746 411.773 90.5261 430.893C127.648 452.295 169.545 469.395 212.457 477.444C216.962 478.303 221.388 479.072 225.736 479.753C258.08 484.932 287.071 486.082 320.502 484.181C351.245 482.438 382.657 478.763 414.213 477.871C424.176 477.583 434.138 477.571 444.101 477.836C465.876 478.416 487.894 480.369 509.993 483.68C545.384 488.909 580.811 497.727 615.565 509.958C660.314 525.762 702.907 547.565 738.137 574.846" stroke="url(#paint3_linear_647_3009)" stroke-width="0.3" stroke-linecap="round" stroke-linejoin="round"/>
<path d="M-298.799 167.257C-284.672 167.82 -270.29 170.117 -257.186 174.801C-243.289 179.908 -229.701 186.085 -216.597 193.251C-203.452 200.327 -190.623 207.994 -178.173 216.213C-160.464 227.865 -143.669 240.136 -127.474 252.485C-108.974 266.625 -91.1664 281.515 -74.1307 297.089C-55.9654 313.624 -39.4383 332.597 -21.4517 349.751C-14.6726 356.18 -7.79222 362.253 -0.758069 368.191C27.8933 392.214 59.0293 413.628 91.9851 431.976C129.214 452.753 171.531 469.801 213.944 478.53C218.407 479.46 222.796 480.322 227.108 481.117C258.473 487.23 289.767 489.706 320.172 488.478C350.815 487.4 382.323 484.052 414.078 483.359C424.05 483.108 434.036 483.141 444.037 483.46C465.76 484.087 487.713 486.032 509.748 489.282C545.137 494.407 580.576 503.091 615.37 515.162C660.228 530.805 702.93 552.73 737.012 580.695" stroke="url(#paint4_linear_647_3009)" stroke-width="0.33" stroke-linecap="round" stroke-linejoin="round"/>
<path d="M-299.29 174.754C-285.248 175.646 -270.823 178.076 -257.899 183.045C-244.129 188.444 -230.648 194.746 -217.585 201.892C-204.354 208.971 -191.345 216.666 -178.994 224.513C-161.239 235.802 -144.332 247.569 -127.941 259.321C-109.266 272.674 -91.2891 286.861 -74.1048 301.806C-55.6059 317.895 -39.1446 337.008 -20.9108 353.891C-14.0751 360.222 -7.10321 366.112 0.0337247 371.872C28.3497 394.742 60.0291 414.943 93.4007 433.105C130.737 453.257 173.481 470.268 215.37 479.666C219.8 480.655 224.155 481.6 228.435 482.502C260.216 489.297 286.315 493.236 319.831 492.793C350.342 492.408 381.967 489.377 413.917 488.891C423.898 488.709 433.871 488.766 443.835 489.063C465.6 489.769 487.581 491.736 509.641 494.952C545.027 499.992 580.476 508.544 615.309 520.445C660.292 535.923 703.119 557.968 736.038 586.621" stroke="url(#paint5_linear_647_3009)" stroke-width="0.35" stroke-linecap="round" stroke-linejoin="round"/>
<path d="M-299.819 182.217C-285.869 183.447 -271.415 186.011 -258.646 191.246C-245.01 196.946 -231.634 203.383 -218.607 210.514C-205.409 217.573 -192.334 225.129 -179.87 232.781C-162.058 243.712 -144.999 255.011 -128.457 266.14C-109.618 278.707 -91.473 292.193 -74.1335 306.515C-55.2948 322.174 -38.8288 341.407 -20.4304 358.007C-13.5228 364.214 -6.46359 369.953 0.764886 375.529C29.3338 397.574 61.321 416.675 94.7618 434.226C132.194 453.747 175.376 470.727 216.748 480.784C221.133 481.85 225.444 482.897 229.681 483.924C261.188 491.53 285.843 496.871 319.393 497.146C349.819 497.4 381.545 494.687 413.583 494.359C423.585 494.228 433.582 494.331 443.573 494.667C465.351 495.426 487.334 497.4 509.396 500.578C544.785 505.516 580.25 513.936 615.125 525.68C660.262 541.022 703.142 563.133 734.902 592.488" stroke="url(#paint6_linear_647_3009)" stroke-width="0.38" stroke-linecap="round" stroke-linejoin="round"/>
<path d="M-300.257 189.731C-286.397 191.299 -271.911 194.013 -259.313 199.492C-245.817 205.503 -232.539 212.074 -219.531 219.18C-206.372 226.228 -193.092 233.429 -180.65 241.093C-162.959 252 -145.592 262.482 -128.867 272.984C-109.863 284.751 -91.5486 297.537 -74.0552 311.25C-54.845 326.449 -38.5296 345.761 -19.8432 362.148C-12.964 368.116 -5.79952 373.811 1.61932 379.209C30.435 400.415 62.7309 418.439 96.2349 435.363C135.549 455.113 176.547 470.754 218.242 481.911C222.635 483.067 226.906 484.209 231.056 485.336C262.298 493.76 285.493 500.48 319.094 501.496C349.409 502.407 381.251 500.011 413.428 499.859C423.466 499.804 433.473 499.948 443.45 500.292C465.247 501.105 487.238 503.086 509.307 506.222C545.364 511.339 581.012 519.439 615.059 530.922C660.293 546.097 703.309 568.31 733.895 598.37" stroke="url(#paint7_linear_647_3009)" stroke-width="0.41" stroke-linecap="round" stroke-linejoin="round"/>
<path d="M-300.747 197.228C-286.973 199.126 -272.448 201.98 -260.016 207.719C-247.064 213.7 -233.942 220.632 -220.509 227.828C-207.372 234.863 -194.038 241.894 -181.482 249.387C-163.777 259.959 -146.082 269.695 -129.334 279.82C-110.437 291.236 -92.0167 302.413 -74.0294 315.967C-54.4527 330.715 -38.1928 350.149 -19.3023 366.287C-12.3619 372.137 -5.11703 377.682 2.39471 382.892C31.4417 403.285 64.0928 420.153 97.6454 436.501C137.19 455.601 178.087 471.223 219.638 483.1C224.001 484.326 228.248 485.568 232.341 486.792C263.321 496.059 285.038 504.137 318.695 505.884C348.899 507.454 380.853 505.383 413.18 505.412C423.197 505.392 433.211 505.576 443.223 505.964C465.037 506.836 487.035 508.825 509.109 511.923C545.201 516.977 580.869 524.888 614.932 536.238C660.265 551.244 703.411 573.569 732.839 604.332" stroke="url(#paint8_linear_647_3009)" stroke-width="0.43" stroke-linecap="round" stroke-linejoin="round"/>
<path d="M-301.231 204.717C-287.526 206.966 -272.991 209.932 -260.718 215.946C-247.937 222.171 -234.941 229.267 -221.485 236.476C-208.382 243.491 -195.165 250.621 -182.313 257.681C-164.356 267.534 -146.882 277.392 -129.794 286.647C-110.53 297.092 -92.1214 307.693 -74.0026 320.684C-54.0595 334.982 -37.8828 354.533 -18.7777 370.405C-11.7748 376.151 -4.43903 381.547 3.18134 386.558C32.47 406.119 65.4555 421.867 99.0507 437.624C138.839 456.048 179.671 471.624 221.086 484.176C225.419 485.503 229.637 486.823 233.668 488.154C264.383 498.239 284.646 507.688 318.354 510.175C348.435 512.396 380.535 510.694 412.972 510.87C423.001 510.916 433.036 511.108 443.053 511.538C464.88 512.463 486.881 514.46 508.956 517.519C545.08 522.52 580.784 530.239 614.847 541.435C660.271 556.281 703.548 578.717 731.807 610.176" stroke="url(#paint9_linear_647_3009)" stroke-width="0.46" stroke-linecap="round" stroke-linejoin="round"/>
<path d="M-301.721 212.214C-288.18 214.747 -273.506 217.913 -261.432 224.166C-248.848 230.679 -235.935 237.893 -222.461 245.124C-209.381 252.126 -196.07 259.145 -183.133 265.981C-165.135 275.479 -147.538 284.84 -130.261 293.482C-110.855 303.193 -92.2265 312.974 -73.9762 325.402C-53.6556 339.255 -37.5732 358.917 -18.2363 374.545C-11.1656 380.178 -3.7429 385.423 3.9736 390.239C33.4988 408.978 66.8342 423.578 100.433 438.734C138.246 455.811 183.229 472.663 222.479 485.292C226.809 486.677 230.977 488.11 235.008 489.57C265.449 500.491 284.238 511.289 317.998 514.517C347.957 517.389 380.153 516.039 412.766 516.376C422.803 516.486 432.85 516.709 442.873 517.154C464.722 518.142 486.733 520.15 508.816 523.17C544.971 528.118 580.689 535.632 614.757 546.689C660.285 561.358 703.675 583.907 730.793 616.067" stroke="url(#paint10_linear_647_3009)" stroke-width="0.48" stroke-linecap="round" stroke-linejoin="round"/>
<path d="M-302.171 219.674C-288.677 222.57 -274.049 225.816 -262.112 232.357C-249.715 239.141 -236.912 246.493 -223.455 253.701C-210.414 260.693 -197.053 267.575 -183.987 274.214C-165.954 283.365 -148.2 292.248 -130.755 300.266C-111.203 309.232 -92.354 318.193 -73.9826 330.075C-53.2403 343.486 -37.2655 363.204 -17.7225 378.631C-10.584 384.156 -3.07185 389.247 4.74342 393.858C34.4887 411.778 68.1853 425.237 101.861 439.845C139.775 456.282 185.203 473.143 223.929 486.392C228.236 487.87 232.368 489.389 236.309 490.928C266.497 502.697 283.803 514.838 317.62 518.821C347.467 522.327 379.786 521.333 412.544 521.836C422.583 521.995 432.637 522.257 442.677 522.725C464.745 523.769 486.731 525.782 508.637 528.762C544.823 533.657 580.566 540.972 614.623 551.893C660.249 566.393 703.781 589.06 729.73 621.916" stroke="url(#paint11_linear_647_3009)" stroke-width="0.51" stroke-linecap="round" stroke-linejoin="round"/>
<path d="M-302.681 227.207C-289.277 230.441 -274.636 233.872 -262.834 240.619C-250.599 247.606 -237.93 255.163 -224.429 262.398C-211.427 269.379 -198.005 276.13 -184.81 282.547C-166.725 291.35 -148.853 299.745 -131.208 307.132C-111.742 315.434 -92.6213 324.684 -73.9483 334.832C-52.1732 346.461 -36.9686 367.663 -17.1844 382.804C-9.95787 388.332 -2.18241 392.887 5.53232 397.572C35.0147 415.505 69.533 426.977 103.285 441.014C141.329 456.839 187.175 473.754 225.383 487.613C229.659 489.169 233.746 490.792 237.608 492.415C267.534 505.026 283.361 518.501 317.306 523.222C347.035 527.37 379.472 526.717 412.419 527.437C422.46 527.644 432.538 527.943 442.585 528.45C464.602 529.513 486.569 531.526 508.485 534.489C544.706 539.321 580.469 546.446 614.521 557.222C660.322 571.6 703.896 594.326 728.687 627.884" stroke="url(#paint12_linear_647_3009)" stroke-width="0.54" stroke-linecap="round" stroke-linejoin="round"/>
<path d="M-303.211 234.669C-289.898 238.242 -275.178 241.742 -263.593 248.814C-251.57 256.139 -238.97 263.763 -225.44 271.026C-212.46 277.995 -199 284.602 -185.676 290.822C-167.55 299.269 -149.538 307.189 -131.72 313.942C-112.116 321.445 -92.8251 329.99 -73.9676 339.523C-51.7625 350.643 -36.6935 372.028 -16.6989 386.935C-9.41485 392.25 -1.72459 397.045 6.27473 401.26C36.4449 417.566 70.8843 428.709 104.652 442.15C142.768 457.331 189.092 474.226 226.758 488.708C231.021 490.338 235.068 492.056 238.84 493.757C268.537 507.255 282.851 522.019 316.821 527.525C346.41 532.302 378.988 532.003 412.029 532.872C422.083 533.134 432.167 533.473 442.215 534.005C464.306 535.165 486.313 537.194 508.238 540.09C544.418 544.84 580.273 551.805 614.33 562.442C660.241 576.657 703.922 599.482 727.578 633.756" stroke="url(#paint13_linear_647_3009)" stroke-width="0.56" stroke-linecap="round" stroke-linejoin="round"/>
<path d="M-303.655 242.192C-290.428 246.094 -275.681 249.729 -264.25 257.066C-252.425 264.656 -239.924 272.424 -226.349 279.713C-213.391 286.669 -199.876 293.154 -186.412 299.159C-168.583 307.226 -150.452 314.459 -132.107 320.823C-112.372 327.518 -92.9094 335.357 -73.8622 344.286C-51.2997 354.867 -36.3048 376.457 -16.0743 391.087C-8.71394 396.295 -0.933039 400.937 7.15541 404.945C37.562 420.429 72.3575 430.439 106.157 443.307C144.386 457.854 191.129 474.803 228.285 489.853C232.524 491.577 236.547 493.388 240.291 495.215C269.703 509.541 282.577 525.65 316.582 531.898C346.054 537.319 378.744 537.369 411.879 538.387C421.946 538.704 432.042 539.074 442.103 539.636C464.199 540.855 486.212 542.891 508.143 545.743C544.336 550.418 580.233 557.206 614.29 567.689C660.316 581.758 704.128 604.694 726.581 639.644" stroke="url(#paint14_linear_647_3009)" stroke-width="0.59" stroke-linecap="round" stroke-linejoin="round"/>
<path d="M-304.14 249.681C-291.004 253.921 -276.212 257.688 -264.952 265.293C-252.812 273.605 -240.237 281.315 -227.303 288.375C-214.205 295.337 -200.824 301.711 -187.221 307.466C-169.286 315.227 -151.019 321.975 -132.546 327.663C-112.438 333.754 -92.5977 339.323 -73.8183 349.025C-51.4987 360.543 -35.9725 380.854 -15.5101 395.24C-8.07296 400.345 -0.202808 404.836 7.97039 408.639C38.5756 423.314 73.7477 432.157 107.596 444.449C145.927 458.38 193.125 475.32 229.74 490.993C233.961 492.8 237.944 494.707 241.642 496.638C270.775 511.833 282.164 529.236 316.232 536.255C345.574 542.287 378.405 542.691 411.729 543.925C421.809 544.298 431.913 544.707 441.99 545.291C464.078 546.561 486.099 548.609 508.054 551.436C544.255 556.044 580.206 562.638 614.252 572.984C660.402 586.889 704.306 609.925 725.602 645.578" stroke="url(#paint15_linear_647_3009)" stroke-width="0.62" stroke-linecap="round" stroke-linejoin="round"/>
<path d="M-304.623 257.169C-291.578 261.747 -276.754 265.639 -265.665 273.513C-253.73 282.1 -241.231 289.955 -228.285 297.007C-215.198 303.963 -201.776 310.217 -188.108 315.728C-170.054 323.176 -151.65 329.442 -133.068 334.466C-112.812 339.837 -92.7264 344.542 -73.8473 353.71C-51.1243 364.74 -35.7183 385.206 -15.0301 399.331C-7.51802 404.341 0.440567 408.685 8.69606 412.281C39.5224 426.16 75.071 433.836 108.962 445.537C147.399 458.819 195.038 475.826 231.118 492.087C235.121 493.889 239.056 495.866 242.904 498.008C271.775 514.071 281.694 532.765 315.803 540.542C344.977 547.176 377.971 547.97 411.45 549.377C421.527 549.807 431.654 550.254 441.733 550.862C463.83 552.2 485.863 554.255 507.83 557.026C544.051 561.575 580.033 567.986 614.118 578.212C660.357 591.99 704.401 615.096 724.544 651.443" stroke="url(#paint16_linear_647_3009)" stroke-width="0.64" stroke-linecap="round" stroke-linejoin="round"/>
<path d="M-305.113 264.667C-292.153 269.574 -277.275 273.604 -266.367 281.74C-254.647 290.579 -242.23 298.57 -229.28 305.609C-216.169 312.573 -202.671 318.719 -188.907 323.993C-170.726 331.142 -152.186 336.928 -133.507 341.282C-113.116 345.927 -92.7789 349.758 -73.794 358.407C-50.6513 368.946 -35.3869 389.579 -14.4781 403.453C-6.87786 408.361 1.17618 412.553 9.51529 415.942C40.5463 429.028 76.4602 435.53 110.394 446.664C148.939 459.321 197.002 476.372 232.567 493.212C236.572 495.035 240.474 497.107 244.238 499.41C272.278 517.24 281.312 536.298 315.441 544.869C344.537 552.155 377.609 553.279 411.222 554.871C421.317 555.346 431.452 555.833 441.542 556.472C463.645 557.853 485.687 559.917 507.668 562.665C543.898 567.147 579.916 573.366 613.961 583.427C660.341 597.015 704.472 620.254 723.457 657.303" stroke="url(#paint17_linear_647_3009)" stroke-width="0.67" stroke-linecap="round" stroke-linejoin="round"/>
<path d="M-305.602 272.164C-292.733 277.41 -277.834 281.559 -267.074 289.976C-255.571 299.079 -243.234 307.231 -230.276 314.293C-217.141 321.269 -203.568 327.311 -189.714 332.348C-171.39 339.186 -152.709 344.489 -133.948 348.18C-113.415 352.113 -92.8219 355.062 -73.7425 363.186C-50.1914 373.227 -35.0522 394.024 -13.9514 407.619C-6.26921 412.423 1.87121 416.462 10.2816 419.643C41.5286 431.942 77.813 437.262 111.791 447.828C150.436 459.846 198.941 476.963 233.979 494.374C237.933 496.337 241.794 498.496 245.54 500.84C273.871 518.661 280.851 539.916 315.043 549.233C344.025 557.129 377.16 558.585 410.979 560.391C421.082 560.93 431.207 561.459 441.32 562.111C463.433 563.545 485.486 565.615 507.48 568.323C543.724 572.754 579.789 578.787 613.829 588.703C660.424 602.179 704.619 625.49 722.425 663.253" stroke="url(#paint18_linear_647_3009)" stroke-width="0.7" stroke-linecap="round" stroke-linejoin="round"/>
<path d="M-306.073 279.659C-293.302 285.227 -278.358 289.508 -267.769 298.193C-256.488 307.553 -244.22 315.858 -231.241 322.923C-218.096 329.881 -204.47 335.797 -190.556 340.587C-172.081 347.118 -153.26 351.933 -134.432 354.945C-113.784 358.163 -92.9023 360.226 -73.7438 367.851C-49.7739 377.377 -34.7703 398.356 -13.3988 411.717C-5.62736 416.429 2.61051 420.316 11.1014 423.279C42.548 434.795 79.2192 438.929 113.285 448.955C152.043 460.338 200.974 477.525 235.49 495.498C239.424 497.537 243.246 499.793 246.931 502.249C274.989 520.955 280.504 543.468 314.81 553.597C343.663 562.105 376.973 563.959 410.88 565.923C421.036 566.528 431.165 567.023 441.32 567.783C463.451 569.306 485.508 571.387 507.492 574.026C543.761 578.388 579.863 584.23 613.903 594.015C660.511 607.286 704.864 630.713 721.518 669.17" stroke="url(#paint19_linear_647_3009)" stroke-width="0.72" stroke-linecap="round" stroke-linejoin="round"/>
<path d="M-306.603 287.121C-293.922 293.028 -278.946 297.434 -268.528 306.388C-257.472 316.004 -245.27 324.468 -232.262 331.545C-219.11 338.519 -205.423 344.329 -191.443 348.873C-172.806 355.105 -153.843 359.438 -134.959 361.781C-114.147 364.301 -93.037 365.454 -73.7778 372.569C-49.3892 381.579 -34.5211 402.741 -12.9239 415.841C-5.06631 420.461 3.26148 424.2 11.8221 426.954C43.4795 437.692 80.5263 440.634 114.585 450.052C153.393 460.778 202.794 478.06 236.806 496.593C240.714 498.719 244.499 501.067 248.131 503.62C275.901 523.213 280.027 546.982 314.326 557.901C343.094 567.046 376.525 569.313 410.591 571.417C420.721 572.066 430.887 572.654 440.985 573.356C463.095 574.915 485.162 577.006 507.186 579.628C543.445 583.903 579.623 589.586 613.663 599.218C660.392 612.333 704.859 635.873 720.343 675.026" stroke="url(#paint20_linear_647_3009)" stroke-width="0.75" stroke-linecap="round" stroke-linejoin="round"/>
<path d="M-307.047 294.645C-294.452 300.88 -279.433 305.419 -269.124 314.664C-258.308 324.535 -246.176 333.165 -233.143 340.26C-219.972 347.237 -206.22 352.935 -192.178 357.234C-173.365 363.158 -154.257 367.007 -135.329 368.685C-114.375 370.493 -92.9884 370.729 -73.6553 377.353C-48.8437 385.816 -34.1204 407.201 -12.2923 420.033C-4.34669 424.532 4.06411 428.1 12.6801 430.626C44.5483 440.585 81.9553 442.363 116.067 451.172C155.032 461.29 205.472 477.504 238.311 497.726C242.155 500 245.897 502.438 249.52 505.03C277.001 525.509 279.618 550.534 314.036 562.233C342.646 571.961 376.189 574.579 410.406 576.887C420.515 577.572 430.665 578.187 440.833 578.953C462.967 580.573 485.045 582.67 507.067 585.244C543.368 589.472 579.499 594.927 613.578 604.439C660.42 617.383 705.002 641.037 719.345 680.89" stroke="url(#paint21_linear_647_3009)" stroke-width="0.77" stroke-linecap="round" stroke-linejoin="round"/>
<path d="M-307.532 302.133C-295.028 308.707 -279.977 313.371 -269.883 322.858C-259.305 332.964 -247.24 341.75 -234.182 348.861C-220.987 355.843 -207.165 361.431 -193.061 365.487C-174.053 371.106 -154.79 374.47 -135.819 375.483C-114.733 376.598 -93.114 375.915 -73.6578 382.042C-48.4438 389.992 -33.8449 411.565 -11.7849 424.153C-3.7388 428.577 4.77437 432.011 13.4679 434.34C45.5417 443.53 83.3552 444.063 117.479 452.358C156.551 461.827 207.399 478.219 239.745 498.901C243.564 501.263 247.264 503.803 250.824 506.508C278.01 527.883 279.184 554.156 313.665 566.625C342.189 576.967 375.826 579.864 410.186 582.445C420.284 583.147 430.504 583.849 440.649 584.626C462.782 586.301 484.866 588.405 506.901 590.939C543.222 595.107 579.456 600.41 613.462 609.737C660.431 622.541 705.109 646.287 718.288 686.828" stroke="url(#paint22_linear_647_3009)" stroke-width="0.8" stroke-linecap="round" stroke-linejoin="round"/>
<path d="M-308.02 309.631C-295.602 316.534 -280.507 321.329 -270.594 331.078C-260.261 341.428 -248.263 350.39 -235.172 357.535C-221.951 364.528 -208.055 370.005 -193.89 373.805C-174.693 379.096 -155.295 381.962 -136.311 382.315C-115.083 382.719 -93.2038 381.12 -73.6624 386.764C-48.0368 394.159 -33.5447 415.943 -11.2806 428.282C-3.13342 432.61 5.47538 435.895 14.2343 438.016C46.5138 446.438 84.6916 445.773 118.87 453.483C158.042 462.312 208.655 479.834 241.146 500.033C244.994 502.4 248.673 505.02 252.141 507.863C279.033 530.133 278.802 557.664 313.293 570.945C341.67 581.877 375.454 585.166 410.008 587.931C420.086 588.669 430.346 589.43 440.514 590.22C462.642 591.939 484.735 594.053 506.794 596.562C543.129 600.655 579.372 605.76 613.406 614.962C660.484 627.605 705.286 651.446 717.291 692.692" stroke="url(#paint23_linear_647_3009)" stroke-width="0.83" stroke-linecap="round" stroke-linejoin="round"/>
<path d="M-308.505 317.119C-296.19 324.354 -281.039 329.288 -271.298 339.305C-261.206 349.878 -249.262 358.994 -236.129 366.148C-222.885 373.151 -208.921 378.519 -194.707 382.073C-175.309 387.05 -155.768 389.434 -136.773 389.142C-115.397 388.85 -93.2809 386.299 -73.5981 391.492C-47.5341 398.312 -33.2187 420.349 -10.7072 432.417C-2.47103 436.65 6.22145 439.781 15.0308 441.688C47.5385 449.354 86.0746 447.475 120.301 454.61C159.586 462.805 210.581 480.419 242.594 501.157C246.431 503.624 250.078 506.353 253.492 509.31C280.079 532.469 278.403 561.224 312.964 575.315C341.234 586.848 375.121 590.529 409.769 593.466C419.917 594.292 430.128 595.06 440.297 595.875C462.438 597.656 484.54 599.78 506.605 602.244C542.955 606.287 579.251 611.198 613.24 620.243C660.426 632.724 705.337 656.664 716.184 698.612" stroke="url(#paint24_linear_647_3009)" stroke-width="0.85" stroke-linecap="round" stroke-linejoin="round"/>
<path d="M-308.988 324.608C-296.757 332.196 -281.559 337.228 -271.998 347.532C-262.153 358.325 -250.272 367.609 -237.104 374.796C-223.831 381.801 -209.797 387.058 -195.536 390.367C-175.926 395.013 -156.242 396.903 -137.244 395.962C-115.674 395.001 -93.3601 391.487 -73.6052 396.141C-47.2124 402.394 -32.9416 424.689 -10.1727 436.468C-1.82605 440.61 6.96868 443.59 15.8438 445.285C48.5469 452.2 87.466 449.039 121.733 455.664C161.11 463.155 212.518 480.937 244.042 502.209C247.845 504.76 251.443 507.575 254.791 510.619C281.079 534.682 277.975 564.658 312.59 579.562C340.74 591.689 374.736 595.752 409.534 598.871C419.695 599.752 429.913 600.56 440.094 601.405C462.213 603.293 484.314 605.454 506.396 607.889C542.759 611.857 579.086 616.585 613.103 625.504C660.426 637.827 705.44 661.874 715.118 704.518" stroke="url(#paint25_linear_647_3009)" stroke-width="0.88" stroke-linecap="round" stroke-linejoin="round"/>
<path d="M-309.478 332.105C-297.333 340.022 -282.091 345.187 -272.727 355.779C-263.13 366.789 -251.306 376.244 -238.096 383.47C-224.793 390.486 -210.684 395.629 -196.378 398.679C-176.546 403.004 -156.713 404.408 -137.715 402.831C-116.057 401.175 -93.446 396.708 -73.5764 400.931C-46.7218 406.646 -32.6347 429.155 -9.59926 440.733C-1.51967 444.789 7.31283 447.34 16.6681 449.092C49.6106 455.257 88.888 450.883 123.187 456.934C162.727 463.809 214.472 481.656 245.513 503.476C249.297 506.113 252.858 509.022 256.146 512.163C282.113 537.118 277.614 568.334 312.261 584.037C340.313 596.747 374.423 601.209 409.36 604.503C419.518 605.441 429.759 606.286 439.941 607.156C462.094 609.055 484.217 611.194 506.312 613.573C542.689 617.49 579.053 622.026 613.08 630.798C660.507 642.967 705.629 667.112 714.155 710.45" stroke="url(#paint26_linear_647_3009)" stroke-width="0.91" stroke-linecap="round" stroke-linejoin="round"/>
<path d="M-309.996 339.574C-297.953 347.823 -282.684 353.122 -273.459 363.953C-264.126 375.18 -252.359 384.808 -239.102 392.066C-225.766 399.088 -211.583 404.12 -197.239 406.92C-177.179 410.907 -157.202 411.818 -138.21 409.614C-116.384 407.227 -93.5678 401.836 -73.6172 405.61C-46.3682 410.748 -32.3923 433.5 -9.18208 444.776C-0.989794 448.768 7.88415 451.117 17.3361 452.677C50.4964 458.103 90.1373 452.507 124.5 457.956C164.091 464.174 216.275 482.144 246.842 504.496C250.608 507.227 254.135 510.232 257.372 513.466C283.012 539.321 277.106 571.746 311.802 588.272C339.735 601.576 373.954 606.42 409.035 609.905C419.211 610.889 429.46 611.774 439.654 612.674C461.794 614.629 483.923 616.776 506.042 619.113C542.467 622.998 578.864 627.4 612.906 635.991C660.442 647.998 705.683 672.248 713.051 716.289" stroke="url(#paint27_linear_647_3009)" stroke-width="0.93" stroke-linecap="round" stroke-linejoin="round"/>
<path d="M-310.44 347.097C-298.483 355.675 -283.171 361.106 -274.116 372.206C-264.857 383.495 -253.862 393.268 -240.034 400.74C-226.658 407.77 -212.397 412.693 -198.014 415.246C-177.745 418.884 -157.649 419.301 -138.692 416.476C-116.706 413.4 -93.6642 407.051 -73.6213 410.38C-45.9677 414.924 -32.1277 437.988 -8.67116 448.969C-0.494893 452.833 8.53384 455.071 18.0979 456.411C51.4812 461.09 91.4742 454.265 125.871 459.165C165.557 464.751 218.118 482.822 248.229 505.703C251.973 508.528 255.46 511.628 258.638 514.958C283.956 541.704 276.661 575.361 311.389 592.687C339.23 606.589 373.552 611.824 408.772 615.484C418.956 616.533 429.217 617.448 439.423 618.379C461.573 620.387 483.711 622.543 505.84 624.847C542.239 628.622 578.692 632.795 612.708 641.276C660.375 653.135 705.79 677.474 711.924 722.22" stroke="url(#paint28_linear_647_3009)" stroke-width="0.96" stroke-linecap="round" stroke-linejoin="round"/>
<path d="M-310.923 354.586C-299.057 363.502 -283.701 369.065 -274.862 380.406C-265.789 391.991 -254.894 401.883 -241.038 409.36C-228.532 416.112 -214.256 420.871 -198.873 423.512C-180.174 426.726 -159.902 426.812 -139.136 423.277C-117.002 419.529 -93.7012 412.216 -73.5465 415.042C-45.5046 418.994 -31.7697 442.317 -8.09256 453.047C0.217913 456.834 9.26144 458.891 18.9273 460.03C52.5449 463.969 92.9013 455.921 127.341 460.254C167.129 465.2 220.061 483.356 249.716 506.789C253.435 509.702 256.882 512.891 260.003 516.306C284.995 543.952 276.299 578.81 311.076 596.982C338.819 611.467 373.233 617.087 408.603 620.929C418.8 622.032 429.068 622.987 439.281 623.933C461.436 626 483.578 628.177 505.705 630.465C542.124 634.18 578.613 638.162 612.63 646.513C660.406 658.21 705.864 682.656 710.916 728.102" stroke="url(#paint29_linear_647_3009)" stroke-width="0.98" stroke-linecap="round" stroke-linejoin="round"/>
<path d="M-311.413 362.083C-299.612 371.293 -284.244 377.016 -275.531 388.653C-266.656 400.501 -255.86 410.538 -241.981 418.027C-228.544 425.103 -214.131 429.818 -199.691 431.861C-180.948 434.792 -160.521 434.377 -139.59 430.168C-117.279 425.728 -93.8206 417.418 -73.5409 419.795C-45.1219 423.148 -31.4808 446.736 -7.58305 457.215C0.738056 460.855 9.93217 462.833 19.7041 463.737C53.5475 467.002 94.2481 457.661 128.737 461.418C168.62 465.733 221.913 483.992 251.128 507.952C254.819 510.963 258.227 514.244 261.3 517.745C285.894 546.309 275.943 582.347 310.688 601.352C338.354 616.385 372.857 622.447 408.371 626.479C418.549 627.642 428.85 628.617 439.075 629.594C461.244 631.724 483.393 633.905 505.522 636.139C541.96 639.794 578.486 643.584 612.508 651.796C660.398 663.322 705.97 687.882 709.842 734.017" stroke="url(#paint30_linear_647_3009)" stroke-width="1.01" stroke-linecap="round" stroke-linejoin="round"/>
<path d="M-311.897 369.572C-300.207 379.155 -284.798 384.962 -276.232 396.879C-267.554 409.016 -256.853 419.164 -242.968 426.669C-215.535 441.483 -178.695 445.845 -140.029 436.959C-117.543 431.828 -93.9028 422.557 -73.4643 424.505C-44.6745 427.244 -31.121 451.113 -6.99239 461.323C30.2757 477.114 85.6678 458.431 130.208 462.532C175.519 466.701 238.367 489.705 262.646 519.177C286.925 548.648 275.584 585.893 310.366 605.713C345.803 625.854 392.908 630.708 438.925 635.239L505.406 641.803C541.858 645.384 578.426 648.996 612.431 657.056C660.452 668.434 706.126 693.077 708.836 739.923" stroke="url(#paint31_linear_647_3009)" stroke-width="1.04" stroke-linecap="round" stroke-linejoin="round"/>
</g>
<defs>
<linearGradient id="paint0_linear_647_3009" x1="741.635" y1="556.409" x2="-235.418" y2="722.996" gradientUnits="userSpaceOnUse">
<stop stop-color="#D630FF"/>
<stop offset="1" stop-color="#B130FF"/>
</linearGradient>
<linearGradient id="paint1_linear_647_3009" x1="740.908" y1="561.727" x2="-224.661" y2="736.734" gradientUnits="userSpaceOnUse">
<stop stop-color="#D630FF"/>
<stop offset="1" stop-color="#B130FF"/>
</linearGradient>
<linearGradient id="paint2_linear_647_3009" x1="740.243" y1="566.89" x2="-213.852" y2="749.973" gradientUnits="userSpaceOnUse">
<stop stop-color="#D630FF"/>
<stop offset="1" stop-color="#B130FF"/>
</linearGradient>
<linearGradient id="paint3_linear_647_3009" x1="739.757" y1="572.05" x2="-202.96" y2="762.912" gradientUnits="userSpaceOnUse">
<stop stop-color="#D630FF"/>
<stop offset="1" stop-color="#B130FF"/>
</linearGradient>
<linearGradient id="paint4_linear_647_3009" x1="739.084" y1="577.121" x2="-191.801" y2="775.607" gradientUnits="userSpaceOnUse">
<stop stop-color="#D630FF"/>
<stop offset="1" stop-color="#B130FF"/>
</linearGradient>
<linearGradient id="paint5_linear_647_3009" x1="738.579" y1="582.238" x2="-180.708" y2="787.982" gradientUnits="userSpaceOnUse">
<stop stop-color="#D630FF"/>
<stop offset="1" stop-color="#B130FF"/>
</linearGradient>
<linearGradient id="paint6_linear_647_3009" x1="737.927" y1="587.271" x2="-170.289" y2="799.523" gradientUnits="userSpaceOnUse">
<stop stop-color="#D630FF"/>
<stop offset="1" stop-color="#B130FF"/>
</linearGradient>
<linearGradient id="paint7_linear_647_3009" x1="737.415" y1="592.297" x2="-160.558" y2="810.269" gradientUnits="userSpaceOnUse">
<stop stop-color="#D630FF"/>
<stop offset="1" stop-color="#B130FF"/>
</linearGradient>
<linearGradient id="paint8_linear_647_3009" x1="736.861" y1="597.394" x2="-151.662" y2="820.412" gradientUnits="userSpaceOnUse">
<stop stop-color="#D630FF"/>
<stop offset="1" stop-color="#B130FF"/>
</linearGradient>
<linearGradient id="paint9_linear_647_3009" x1="736.337" y1="602.362" x2="-143.994" y2="829.466" gradientUnits="userSpaceOnUse">
<stop stop-color="#D630FF"/>
<stop offset="1" stop-color="#B130FF"/>
</linearGradient>
<linearGradient id="paint10_linear_647_3009" x1="735.834" y1="607.373" x2="-137.128" y2="837.981" gradientUnits="userSpaceOnUse">
<stop stop-color="#D630FF"/>
<stop offset="1" stop-color="#B130FF"/>
</linearGradient>
<linearGradient id="paint11_linear_647_3009" x1="735.288" y1="612.329" x2="-140.745" y2="840.218" gradientUnits="userSpaceOnUse">
<stop stop-color="#D630FF"/>
<stop offset="1" stop-color="#B130FF"/>
</linearGradient>
<linearGradient id="paint12_linear_647_3009" x1="734.766" y1="617.398" x2="-147.257" y2="840.811" gradientUnits="userSpaceOnUse">
<stop stop-color="#D630FF"/>
<stop offset="1" stop-color="#B130FF"/>
</linearGradient>
<linearGradient id="paint13_linear_647_3009" x1="734.182" y1="622.365" x2="-153.689" y2="841.231" gradientUnits="userSpaceOnUse">
<stop stop-color="#D630FF"/>
<stop offset="1" stop-color="#B130FF"/>
</linearGradient>
<linearGradient id="paint14_linear_647_3009" x1="733.713" y1="627.342" x2="-160.028" y2="841.523" gradientUnits="userSpaceOnUse">
<stop stop-color="#D630FF"/>
<stop offset="1" stop-color="#B130FF"/>
</linearGradient>
<linearGradient id="paint15_linear_647_3009" x1="733.266" y1="632.358" x2="-166.133" y2="841.935" gradientUnits="userSpaceOnUse">
<stop stop-color="#D630FF"/>
<stop offset="1" stop-color="#B130FF"/>
</linearGradient>
<linearGradient id="paint16_linear_647_3009" x1="732.727" y1="637.327" x2="-172.137" y2="842.232" gradientUnits="userSpaceOnUse">
<stop stop-color="#D630FF"/>
<stop offset="1" stop-color="#B130FF"/>
</linearGradient>
<linearGradient id="paint17_linear_647_3009" x1="732.183" y1="642.252" x2="-178.119" y2="842.362" gradientUnits="userSpaceOnUse">
<stop stop-color="#D630FF"/>
<stop offset="1" stop-color="#B130FF"/>
</linearGradient>
<linearGradient id="paint18_linear_647_3009" x1="731.695" y1="647.263" x2="-183.809" y2="842.697" gradientUnits="userSpaceOnUse">
<stop stop-color="#D630FF"/>
<stop offset="1" stop-color="#B130FF"/>
</linearGradient>
<linearGradient id="paint19_linear_647_3009" x1="731.318" y1="652.264" x2="-189.42" y2="842.943" gradientUnits="userSpaceOnUse">
<stop stop-color="#D630FF"/>
<stop offset="1" stop-color="#B130FF"/>
</linearGradient>
<linearGradient id="paint20_linear_647_3009" x1="730.686" y1="657.186" x2="-197.95" y2="840.799" gradientUnits="userSpaceOnUse">
<stop stop-color="#D630FF"/>
<stop offset="1" stop-color="#B130FF"/>
</linearGradient>
<linearGradient id="paint21_linear_647_3009" x1="730.225" y1="662.122" x2="-206.269" y2="838.483" gradientUnits="userSpaceOnUse">
<stop stop-color="#D630FF"/>
<stop offset="1" stop-color="#B130FF"/>
</linearGradient>
<linearGradient id="paint22_linear_647_3009" x1="729.706" y1="667.132" x2="-214.1" y2="836.457" gradientUnits="userSpaceOnUse">
<stop stop-color="#D630FF"/>
<stop offset="1" stop-color="#B130FF"/>
</linearGradient>
<linearGradient id="paint23_linear_647_3009" x1="729.253" y1="672.058" x2="-221.903" y2="834.08" gradientUnits="userSpaceOnUse">
<stop stop-color="#D630FF"/>
<stop offset="1" stop-color="#B130FF"/>
</linearGradient>
<linearGradient id="paint24_linear_647_3009" x1="728.689" y1="677.041" x2="-229.131" y2="832.046" gradientUnits="userSpaceOnUse">
<stop stop-color="#D630FF"/>
<stop offset="1" stop-color="#B130FF"/>
</linearGradient>
<linearGradient id="paint25_linear_647_3009" x1="728.169" y1="682.005" x2="-236.211" y2="829.881" gradientUnits="userSpaceOnUse">
<stop stop-color="#D630FF"/>
<stop offset="1" stop-color="#B130FF"/>
</linearGradient>
<linearGradient id="paint26_linear_647_3009" x1="727.747" y1="687.004" x2="-243.078" y2="827.724" gradientUnits="userSpaceOnUse">
<stop stop-color="#D630FF"/>
<stop offset="1" stop-color="#B130FF"/>
</linearGradient>
<linearGradient id="paint27_linear_647_3009" x1="727.189" y1="691.901" x2="-249.674" y2="825.496" gradientUnits="userSpaceOnUse">
<stop stop-color="#D630FF"/>
<stop offset="1" stop-color="#B130FF"/>
</linearGradient>
<linearGradient id="paint28_linear_647_3009" x1="726.614" y1="696.879" x2="-255.935" y2="823.406" gradientUnits="userSpaceOnUse">
<stop stop-color="#D630FF"/>
<stop offset="1" stop-color="#B130FF"/>
</linearGradient>
<linearGradient id="paint29_linear_647_3009" x1="726.148" y1="701.828" x2="-262.014" y2="821.28" gradientUnits="userSpaceOnUse">
<stop stop-color="#D630FF"/>
<stop offset="1" stop-color="#B130FF"/>
</linearGradient>
<linearGradient id="paint30_linear_647_3009" x1="725.624" y1="706.794" x2="-267.825" y2="819.258" gradientUnits="userSpaceOnUse">
<stop stop-color="#D630FF"/>
<stop offset="1" stop-color="#B130FF"/>
</linearGradient>
<linearGradient id="paint31_linear_647_3009" x1="725.167" y1="711.752" x2="-273.432" y2="817.224" gradientUnits="userSpaceOnUse">
<stop stop-color="#D630FF"/>
<stop offset="1" stop-color="#B130FF"/>
</linearGradient>
<clipPath id="clip0_647_3009">
<rect width="1173.13" height="382.263" fill="white" transform="translate(-217.564 0.204346) rotate(30.1021)"/>
</clipPath>
</defs>
</svg>
