<svg width="1920" height="1095" viewBox="0 0 1920 1095" fill="none" xmlns="http://www.w3.org/2000/svg">
<g opacity="0.35" clip-path="url(#clip0_465_3370)">
<path d="M2100.02 849.225C1899.5 752.835 1663.29 704.218 1436.78 743.878C1302.03 767.539 1171.85 821.633 1035.09 820.864C866.805 819.898 715.131 735.663 589.279 638.39C463.428 541.117 352.243 427.509 211.523 347.782C137.154 305.611 48.605 272.849 -39.0364 288.89" stroke="url(#paint0_linear_465_3370)" stroke-width="0.22" stroke-linecap="round" stroke-linejoin="round"/>
<path d="M-38.0084 303.736C-11.0582 299.343 17.4439 299.291 46.1371 303.583C75.0679 308.194 103.794 315.989 131.56 326.763C159.217 337.435 186.135 349.968 212.019 364.227C249.145 384.808 285.038 407.225 319.469 431.334C358.822 458.814 396.502 487.897 433.941 518.019C472.082 548.72 509.299 581.096 547.841 611.703C562.324 623.22 576.993 634.494 591.847 645.523C651.751 690.029 717.606 730.822 787.808 762.447C865.837 797.552 950.559 820.877 1038.28 822.862C1047.31 823.081 1056.28 823.091 1065.19 822.893C1130.48 821.612 1192.41 810.074 1256.96 795.251C1316.73 781.295 1376.81 765.125 1437.82 754.847C1457.2 751.542 1476.66 748.85 1496.18 746.771C1607.45 734.964 1724.08 742.173 1839.64 768.004C1929.26 787.667 2016.98 819.076 2099.43 861.025" stroke="url(#paint1_linear_465_3370)" stroke-width="0.25" stroke-linecap="round" stroke-linejoin="round"/>
<path d="M-37.0969 318.598C-10.113 314.74 18.3053 315.197 46.8083 319.947C75.6092 325.175 104.145 333.258 131.801 344.02C159.419 354.628 186.383 366.909 212.455 380.754C249.502 400.484 285.482 421.902 320.204 444.894C359.742 470.806 397.451 498.364 435.083 527.295C473.765 557.039 510.927 589.677 549.854 619.699C564.431 631.015 579.267 641.912 594.275 652.531C654.568 695.247 720.662 733.815 790.814 764.299C868.871 798.144 954.412 821.242 1041.31 824.725C1050.31 825.075 1059.22 825.275 1068.06 825.327C1133.04 825.648 1192.57 817.447 1257.3 803.908C1317.11 791.393 1377.41 775.707 1438.77 765.71C1458.18 762.519 1477.66 759.903 1497.2 757.862C1539.83 753.422 1583.31 751.669 1627.3 752.615C1697.95 754.113 1769.56 762.712 1840.66 778.238C1932.09 798.214 2020.78 830.047 2098.77 872.879" stroke="url(#paint2_linear_465_3370)" stroke-width="0.27" stroke-linecap="round" stroke-linejoin="round"/>
<path d="M-36.1096 333.34C-9.10457 329.989 19.2287 330.944 47.5394 336.161C76.1833 342.002 104.522 350.347 132.077 361.053C159.638 371.659 186.635 383.718 212.887 397.15C249.846 416.094 285.93 436.513 320.991 458.323C360.639 482.917 399.12 509.005 436.285 536.488C475.492 565.246 512.607 598.128 551.903 627.602C566.7 638.725 581.566 649.218 596.668 659.547C658.239 701.242 724.466 737.068 793.824 766.199C871.925 798.747 958.292 821.664 1044.36 826.597C1053.4 827.143 1062.27 827.534 1070.95 827.77C1135.6 829.75 1192.67 824.687 1257.66 812.528C1317.43 801.358 1378.02 786.234 1439.6 776.524C1459.03 773.446 1478.54 770.909 1498.12 768.913C1540.91 764.554 1584.52 762.823 1628.64 763.731C1699.27 765.041 1770.88 773.371 1842.03 788.555C1933.65 808.215 2022.57 840.166 2098.45 884.704" stroke="url(#paint3_linear_465_3370)" stroke-width="0.3" stroke-linecap="round" stroke-linejoin="round"/>
<path d="M-35.1678 348.128C-7.35877 345.666 21.3875 346.536 48.2328 352.402C76.7372 358.897 104.908 367.565 132.379 378.293C159.909 388.835 186.967 400.612 213.423 413.567C251.046 431.918 287.035 451.712 321.867 471.81C361.666 494.834 400.298 519.502 437.591 545.703C477.339 573.502 514.494 606.489 554.048 635.545C568.947 646.425 583.954 656.583 599.228 666.435C661.402 706.254 727.783 740.335 796.954 767.951C875.107 799.248 962.285 821.956 1047.55 828.35C1056.53 829.045 1065.34 829.626 1073.98 830.094C1136.95 834.153 1198.86 831.104 1258.1 821.027C1317.84 811.183 1378.7 796.677 1440.72 787.306C1460.18 784.297 1479.75 781.843 1499.41 779.943C1542.12 775.69 1585.6 773.959 1629.57 774.764C1700.17 775.872 1771.77 783.936 1842.96 798.796C1934.76 818.112 2023.92 850.275 2097.72 896.444" stroke="url(#paint4_linear_465_3370)" stroke-width="0.33" stroke-linecap="round" stroke-linejoin="round"/>
<path d="M-34.2336 362.934C-6.50949 361.138 22.3554 362.257 48.9189 368.728C77.2489 375.825 105.241 384.766 132.627 395.466C160.326 405.99 187.745 417.778 213.913 430.029C251.534 447.656 287.614 466.435 322.68 485.315C362.622 506.753 401.409 530 438.835 554.934C479.123 581.776 516.184 615.052 556.154 643.515C571.139 654.19 586.279 663.965 601.71 673.444C662.936 711.088 730.075 742.657 800.014 769.805C878.219 799.851 966.223 822.38 1050.63 830.214C1059.56 831.033 1068.32 831.786 1076.93 832.473C1140.89 837.76 1193 838.887 1258.52 829.563C1318.18 821.111 1379.35 807.195 1441.8 798.181C1461.3 795.305 1480.85 792.901 1500.43 790.968C1543.24 786.857 1586.78 785.163 1630.8 785.896C1701.37 786.837 1772.95 794.64 1844.17 809.157C1936.17 828.119 2025.61 860.486 2097.31 908.294" stroke="url(#paint5_linear_465_3370)" stroke-width="0.35" stroke-linecap="round" stroke-linejoin="round"/>
<path d="M-33.3861 377.682C-5.7548 376.572 23.1974 377.946 49.526 384.977C77.6702 392.699 105.49 401.93 132.803 412.609C160.431 423.103 187.944 434.602 214.284 446.443C251.927 463.354 288.186 481.178 323.39 498.799C363.456 518.657 402.396 540.49 439.968 564.164C480.813 590.076 517.914 623.588 558.135 651.455C573.229 661.868 588.502 671.325 604.066 680.422C665.579 716.388 733.043 745.723 802.963 771.657C881.197 800.442 970.05 822.801 1053.61 832.057C1062.47 833.038 1071.18 833.999 1079.73 834.942C1143.36 841.889 1192.99 846.125 1258.76 838.199C1318.42 831.018 1379.86 817.7 1442.53 808.974C1462.08 806.193 1481.68 803.871 1501.34 802.009C1544.18 798 1587.73 796.319 1631.74 796.976C1702.29 797.717 1773.87 805.257 1845.13 819.455C1937.4 838.113 2026.96 870.595 2096.57 920.072" stroke="url(#paint6_linear_465_3370)" stroke-width="0.38" stroke-linecap="round" stroke-linejoin="round"/>
<path d="M-32.3495 392.51C-4.81103 392.084 24.2442 393.743 50.2985 401.295C78.247 409.66 105.909 419.178 133.176 429.813C160.726 440.296 188.551 451.049 214.853 462.917C252.251 479.814 288.908 495.961 324.313 512.307C364.499 530.556 403.594 550.975 441.313 573.416C482.771 598.335 519.596 632.039 560.327 659.417C575.306 669.37 590.774 678.715 606.665 687.415C668.45 721.673 736.247 748.822 806.133 773.513C888.11 802.271 972.349 822.558 1056.82 833.886C1065.72 835.043 1074.37 836.201 1082.78 837.361C1146.09 845.976 1193.21 853.283 1259.27 846.794C1318.87 840.929 1380.63 828.202 1443.61 819.783C1463.25 817.142 1482.89 814.9 1502.51 813.056C1545.41 809.149 1588.97 807.478 1632.99 808.052C1704.89 808.974 1776.75 815.842 1846.33 829.74C1938.74 848.043 2028.59 880.692 2096.08 931.845" stroke="url(#paint7_linear_465_3370)" stroke-width="0.41" stroke-linecap="round" stroke-linejoin="round"/>
<path d="M-31.4152 407.316C-3.96164 407.557 25.2044 409.482 51.0003 417.584C77.8757 426.029 105.322 436.293 133.447 446.996C160.949 457.459 188.837 467.865 215.319 479.37C252.66 495.607 289.77 510.21 325.126 525.812C365.014 543.402 403.91 560.642 442.557 582.648C484.618 606.591 521.365 640.548 562.434 667.387C577.502 677.093 593.09 686.124 609.116 694.432C671.148 727.039 739.349 751.835 809.185 775.386C891.45 802.813 975.486 823.087 1059.86 835.862C1068.71 837.162 1077.34 838.524 1085.67 839.888C1148.68 850.219 1193.25 860.559 1259.6 855.489C1319.15 850.94 1381.21 838.821 1444.52 830.721C1464.14 828.155 1483.8 825.988 1503.5 824.221C1546.44 820.424 1590.03 818.769 1634.04 819.266C1706 820.056 1777.85 826.548 1847.42 840.183C1939.99 858.131 2030.12 890.965 2095.52 943.786" stroke="url(#paint8_linear_465_3370)" stroke-width="0.43" stroke-linecap="round" stroke-linejoin="round"/>
<path d="M-30.474 422.104C-3.06598 423.05 26.1479 425.192 51.7011 433.872C78.3022 442.838 105.545 453.456 133.717 464.179C161.148 474.612 188.832 485.239 215.784 495.823C253.437 510.588 290.145 525.485 325.946 539.298C366.31 554.894 405.037 571.01 443.799 591.88C486.464 614.848 523.079 649.055 564.5 675.319C579.664 684.804 595.392 693.521 611.581 701.412C673.877 732.331 742.45 754.847 812.22 777.23C894.791 803.272 978.688 823.473 1062.96 837.604C1071.79 839.111 1080.38 840.632 1088.61 842.22C1151.31 854.219 1193.37 867.612 1260.02 863.978C1319.49 860.736 1381.92 849.303 1445.5 841.462C1465.15 839.022 1484.85 836.866 1504.57 835.181C1547.56 831.485 1591.15 829.844 1635.15 830.264C1707.16 830.943 1779.03 837.05 1848.56 850.382C1941.27 867.995 2031.69 901.013 2094.97 955.493" stroke="url(#paint9_linear_465_3370)" stroke-width="0.46" stroke-linecap="round" stroke-linejoin="round"/>
<path d="M-29.5401 436.911C-2.38254 438.453 27.155 440.951 52.3788 450.151C78.6665 459.732 105.776 470.601 133.988 481.361C161.372 491.775 189.212 502.161 216.273 512.285C253.916 526.345 290.741 540.237 326.759 552.803C367.213 566.923 406.165 581.378 445.042 601.111C488.335 623.114 524.792 657.563 566.606 683.289C581.875 692.537 597.735 700.936 614.062 708.421C676.614 737.67 745.583 757.851 815.208 779.054C893.571 802.957 985.919 824.609 1065.98 839.438C1074.81 841.058 1083.33 842.813 1091.59 844.656C1153.96 858.361 1193.49 874.767 1260.42 872.57C1319.81 870.635 1382.53 859.867 1446.48 852.298C1466.17 849.981 1485.9 847.882 1505.64 846.225C1548.68 842.647 1592.29 841.025 1636.3 841.367C1708.36 841.934 1780.21 847.635 1849.72 860.694C1942.58 877.934 2033.25 911.146 2094.47 967.285" stroke="url(#paint10_linear_465_3370)" stroke-width="0.48" stroke-linecap="round" stroke-linejoin="round"/>
<path d="M-28.5446 451.634C-1.38529 453.901 28.0818 456.566 53.1103 466.365C79.1002 476.523 106.029 487.689 134.202 498.411C161.507 508.814 189.41 518.919 216.674 528.624C254.3 541.996 291.311 554.913 327.499 566.212C368.052 578.838 407.228 591.632 446.205 610.266C490.211 631.296 526.473 665.882 568.639 691.164C584.013 700.181 600.01 708.257 616.479 715.315C679.255 742.903 748.644 760.759 818.282 780.87C896.681 803.494 989.902 825.052 1069.09 841.227C1077.9 843.035 1086.37 844.967 1094.48 846.986C1156.57 862.417 1193.53 881.827 1260.76 881.096C1320.1 880.43 1383.14 870.328 1447.42 863.047C1467.12 860.825 1486.88 858.802 1506.66 857.184C1550.14 853.662 1593.71 852.055 1637.36 852.364C1709.46 852.819 1781.31 858.125 1850.76 870.919C1943.78 887.804 2034.75 921.211 2093.86 979.008" stroke="url(#paint11_linear_465_3370)" stroke-width="0.51" stroke-linecap="round" stroke-linejoin="round"/>
<path d="M-27.6409 466.515C-0.574402 469.467 28.9644 472.492 53.7814 482.728C79.5047 493.322 106.222 504.927 134.489 515.689C161.716 526.08 189.704 535.914 217.164 545.153C254.804 557.829 291.923 569.76 328.344 579.774C368.562 591.12 408.343 604.41 447.473 619.574C493.053 636.853 528.18 674.54 570.746 699.2C586.294 708.202 602.671 715.16 618.962 722.39C681.226 750.07 751.723 763.828 821.366 782.8C899.865 804.193 993.92 825.75 1072.24 843.252C1081.01 845.219 1089.42 847.367 1097.4 849.571C1159.19 866.718 1193.58 889.114 1261.25 889.793C1320.52 890.416 1383.88 880.951 1448.59 874.047C1468.31 871.919 1488.12 869.963 1507.92 868.421C1551.31 864.947 1594.84 863.345 1638.51 863.617C1710.66 863.942 1782.5 868.871 1851.91 881.382C1945.23 897.982 2036.3 931.494 2093.32 990.96" stroke="url(#paint12_linear_465_3370)" stroke-width="0.54" stroke-linecap="round" stroke-linejoin="round"/>
<path d="M-26.7931 481.263C0.180637 484.9 29.8929 488.042 54.3652 498.967C79.7596 510.279 106.36 522.031 134.689 532.842C161.869 543.213 189.896 552.756 217.56 561.576C255.19 573.546 292.464 584.511 329.063 593.24C369.35 602.987 409.286 614.853 448.622 628.766C494.915 644.94 529.823 683.018 572.743 707.167C588.349 715.737 604.62 723.188 621.35 729.425C684.55 753.746 754.809 766.878 824.332 784.68C902.811 804.793 997.796 826.191 1075.22 845.048C1083.98 847.165 1092.34 849.51 1100.15 851.889C1161.72 870.829 1193.48 896.133 1261.39 898.343C1320.55 900.233 1384.27 891.425 1449.2 884.79C1468.96 882.766 1488.79 880.886 1508.6 879.391C1552.16 876.09 1595.77 874.509 1639.44 874.649C1711.49 874.821 1783.47 879.415 1852.85 891.652C1946.35 907.907 2037.66 941.585 2092.64 1002.74" stroke="url(#paint13_linear_465_3370)" stroke-width="0.56" stroke-linecap="round" stroke-linejoin="round"/>
<path d="M-25.7653 496.109C1.12347 500.413 30.923 503.81 55.1605 515.295C80.2335 527.175 106.677 539.234 135.101 550.084C162.233 560.436 190.339 569.726 218.222 578.089C255.175 589.389 292.508 598.979 330.041 606.814C370.381 614.944 410.475 625.387 450.03 638.067C496.887 653.096 531.702 691.595 575.013 715.141C590.742 723.483 607.152 730.61 624.004 736.419C687.46 759.07 758.131 769.895 827.571 786.566C906.111 805.41 1001.93 826.807 1078.5 846.907C1087.23 849.212 1095.57 851.744 1103.36 854.377C1164.58 875.013 1193.86 903.313 1262.03 906.968C1321.11 910.147 1385.15 901.995 1450.3 895.628C1470.09 893.709 1489.96 891.886 1509.8 890.448C1553.39 887.26 1597.01 885.693 1640.68 885.745C1712.74 885.766 1784.76 890.003 1854.1 901.938C1947.79 917.878 2039.38 951.74 2092.17 1014.52" stroke="url(#paint14_linear_465_3370)" stroke-width="0.59" stroke-linecap="round" stroke-linejoin="round"/>
<path d="M-24.8234 510.897C1.97258 515.886 31.8908 519.53 55.862 531.584C81.7348 544.799 108.308 556.725 135.419 567.287C162.827 577.618 190.642 586.724 218.735 594.562C255.817 605.236 293.295 613.842 330.908 620.32C371.825 627.175 412.086 633.074 451.313 647.337C497.93 664.262 533.463 700.122 577.167 723.131C593.02 731.253 609.566 738.062 626.533 743.447C690.174 764.465 761.287 772.909 830.678 788.44C909.262 806.051 1005.97 827.317 1081.63 848.772C1090.36 851.246 1098.64 853.974 1106.37 856.823C1167.26 879.231 1193.95 910.44 1262.44 915.589C1321.43 919.998 1385.83 912.504 1451.4 906.513C1471.24 904.699 1491.13 902.951 1511.01 901.552C1554.59 898.465 1598.23 896.919 1641.94 896.916C1714 896.805 1786.07 900.648 1855.36 912.318C1949.25 927.905 2041.05 961.941 2091.75 1026.39" stroke="url(#paint15_linear_465_3370)" stroke-width="0.62" stroke-linecap="round" stroke-linejoin="round"/>
<path d="M-23.8815 525.685C2.82169 531.359 32.835 535.24 56.5399 547.862C82.08 561.666 108.54 573.898 135.674 584.441C163.059 594.761 190.923 603.622 219.082 610.966C256.319 620.997 293.942 628.624 331.603 633.775C372.626 639.183 413.151 643.328 452.438 656.519C499.722 672.386 535.058 708.58 579.139 731.023C595.115 738.939 611.797 745.438 628.872 750.397C692.746 769.8 764.302 775.863 833.627 790.226C912.255 806.539 1009.84 827.824 1084.61 850.567C1092.9 853.086 1101.11 855.964 1109.18 859.189C1169.78 883.36 1193.92 917.47 1262.68 924.094C1321.49 929.722 1386.31 922.953 1452.23 917.261C1472.08 915.559 1492.02 913.879 1511.91 912.527C1555.53 909.572 1599.19 908.037 1642.92 907.92C1715 907.688 1787.08 911.164 1856.42 922.59C1950.45 937.907 2042.54 972.044 2091.16 1038.14" stroke="url(#paint16_linear_465_3370)" stroke-width="0.64" stroke-linecap="round" stroke-linejoin="round"/>
<path d="M-22.9478 540.491C3.67045 546.832 33.8261 550.971 57.2411 564.151C82.4236 578.504 108.758 591.021 135.897 601.538C163.331 611.868 191.316 620.499 219.602 627.354C257.012 636.767 294.783 643.42 332.463 647.234C373.569 651.185 414.364 653.556 453.727 665.705C501.71 680.504 536.811 717.061 581.26 738.956C597.383 746.651 614.214 752.828 631.401 757.359C695.475 775.158 767.451 778.829 836.718 792.071C915.397 807.134 1013.83 828.399 1087.73 852.404C1096.03 854.964 1104.2 858.037 1112.15 861.596C1171.56 889.441 1194.06 924.485 1263.07 932.657C1321.89 939.585 1386.94 933.442 1453.17 928.077C1473.06 926.461 1493.03 924.856 1512.96 923.561C1556.59 920.689 1600.28 919.169 1644.02 919.003C1716.1 918.639 1788.21 921.73 1857.43 932.843C1951.69 947.75 2043.98 982.127 2090.51 1049.89" stroke="url(#paint17_linear_465_3370)" stroke-width="0.67" stroke-linecap="round" stroke-linejoin="round"/>
<path d="M-22.0149 555.297C4.51055 562.323 34.7376 566.689 57.9336 580.458C82.7577 595.383 108.976 608.236 136.135 618.796C163.62 629.144 191.726 637.551 220.13 643.921C257.742 652.689 295.664 658.361 333.337 660.854C374.543 663.375 415.617 663.955 455.033 675.051C503.69 688.773 538.587 725.683 583.342 746.982C599.599 754.452 616.56 760.308 633.834 764.414C698.133 780.618 770.535 781.879 839.745 794C918.461 807.783 1017.78 829.067 1090.79 854.324C1099.03 857.17 1107.13 860.424 1115.06 864.068C1175.04 891.822 1194.07 931.686 1263.39 941.305C1322.14 949.455 1387.4 943.946 1454.09 938.948C1474.01 937.456 1493.97 935.936 1513.94 934.66C1557.61 931.889 1601.32 930.38 1645.08 930.132C1717.18 929.665 1789.33 932.38 1858.5 943.21C1953.15 957.843 2045.59 992.345 2089.99 1061.81" stroke="url(#paint18_linear_465_3370)" stroke-width="0.7" stroke-linecap="round" stroke-linejoin="round"/>
<path d="M-21.0494 570.095C5.36746 577.777 35.7132 582.391 58.6429 596.728C83.098 612.212 109.219 625.381 136.422 635.941C163.921 646.251 192.099 654.399 220.556 660.27C258.387 668.397 296.461 673.077 334.095 674.226C375.344 675.318 416.76 674.088 456.205 684.187C505.552 696.794 540.229 734.095 585.455 754.868C601.864 762.135 618.978 767.67 636.355 771.33C700.847 785.947 773.708 784.79 842.954 795.829C921.73 808.342 1021.89 829.654 1094.03 856.144C1102.25 859.144 1110.3 862.597 1118.14 866.478C1177.81 896.032 1194.29 938.73 1264.03 949.912C1322.68 959.293 1388.39 954.518 1455.29 949.808C1475.33 948.43 1495.29 946.844 1515.37 945.769C1559.1 943.168 1602.82 941.678 1646.54 941.298C1718.67 940.69 1790.85 943.02 1859.98 953.595C1954.61 967.823 2047.38 1002.51 2089.7 1073.62" stroke="url(#paint19_linear_465_3370)" stroke-width="0.72" stroke-linecap="round" stroke-linejoin="round"/>
<path d="M-20.2026 584.843C6.12146 593.211 36.5623 598.061 59.2257 612.967C83.3044 629.009 109.338 642.508 136.597 653.085C164.116 663.424 192.387 671.349 220.911 676.72C258.984 684.221 297.215 687.923 334.789 687.747C376.184 687.43 417.816 684.361 457.329 693.435C507.367 704.927 541.824 742.619 587.427 762.826C603.981 769.889 621.234 775.112 638.694 778.345C703.402 791.385 776.699 787.8 845.776 797.649C924.486 808.863 1025.6 830.242 1096.88 857.956C1105.07 861.133 1113.08 864.777 1120.83 868.861C1180.16 900.224 1194.24 945.732 1264.17 958.461C1322.82 969.112 1388.86 965.117 1456.11 960.64C1476.11 959.356 1496.17 957.941 1516.12 956.769C1559.82 954.243 1603.56 952.769 1647.35 952.347C1719.44 951.568 1791.73 953.571 1860.82 963.844C1955.65 977.738 2048.67 1012.62 2088.88 1085.39" stroke="url(#paint20_linear_465_3370)" stroke-width="0.75" stroke-linecap="round" stroke-linejoin="round"/>
<path d="M-19.1735 599.689C7.06559 608.723 37.6251 613.821 60.1483 629.326C83.8217 645.927 109.759 659.768 137.073 670.375C164.628 680.715 192.998 688.404 221.583 693.281C259.922 700.135 298.314 702.85 335.807 701.36C377.301 699.615 419.244 694.679 458.778 702.774C509.505 713.086 543.736 751.253 589.723 770.875C606.419 777.681 623.791 782.546 641.302 785.319C706.227 796.783 779.935 790.825 848.962 799.468C927.826 809.452 1030.7 828.478 1100.12 859.794C1108.22 863.279 1116.16 867.11 1123.91 871.27C1182.9 904.443 1194.34 952.793 1264.69 967.018C1323.18 978.852 1389.53 975.513 1457.13 971.401C1477.1 970.191 1497.13 968.833 1517.24 967.768C1560.99 965.356 1604.76 963.891 1648.54 963.375C1720.7 962.495 1792.84 964.061 1861.98 974.09C1956.98 987.621 2050.26 1022.7 2088.41 1097.13" stroke="url(#paint21_linear_465_3370)" stroke-width="0.77" stroke-linecap="round" stroke-linejoin="round"/>
<path d="M-18.2321 614.477C7.91422 624.196 38.5688 629.531 60.7311 645.565C83.9973 662.687 109.841 676.851 137.209 687.48C164.814 697.824 193.292 705.281 221.937 709.666C260.582 715.873 299.156 717.6 336.564 714.798C378.141 711.661 420.308 704.867 459.958 711.958C511.343 721.164 545.378 759.731 591.757 778.816C608.631 785.449 626.17 790.026 643.783 792.393C708.917 802.299 783.106 793.801 852.029 801.435C930.937 810.121 1034.66 829.391 1103.22 861.734C1111.3 865.395 1119.18 869.437 1126.84 873.836C1185.48 908.837 1194.4 959.995 1265.08 975.714C1323.55 988.771 1390.16 985.955 1458.1 982.339C1478.05 981.168 1498.25 979.963 1518.31 978.925C1562.08 976.62 1605.86 975.169 1649.65 974.571C1721.84 973.569 1794.14 974.809 1863.09 984.496C1958.3 997.72 2051.8 1032.95 2087.84 1109.02" stroke="url(#paint22_linear_465_3370)" stroke-width="0.8" stroke-linecap="round" stroke-linejoin="round"/>
<path d="M-17.2986 629.284C8.76275 639.669 39.536 645.252 61.4085 661.844C84.2566 679.506 110.016 694.029 137.456 704.719C165.114 715.077 193.711 722.297 222.411 726.166C261.341 731.682 300.055 732.402 337.321 728.302C378.997 723.737 421.443 715.084 461.137 721.207C513.189 729.223 547.068 768.228 593.784 786.775C610.832 793.196 628.52 797.456 646.209 799.401C711.552 807.749 786.152 796.812 855.033 803.288C933.977 810.695 1037.52 832.239 1106.25 863.597C1114.38 867.263 1122.25 871.465 1129.76 876.158C1188.04 912.986 1194.54 966.963 1265.44 984.268C1323.77 998.517 1390.76 996.434 1459.13 993.129C1479.06 992.032 1499.34 990.933 1519.46 989.915C1563.22 987.698 1607.02 986.262 1650.86 985.609C1723.05 984.456 1795.32 985.31 1864.29 994.743C1959.68 1007.62 2053.44 1043.01 2087.36 1120.76" stroke="url(#paint23_linear_465_3370)" stroke-width="0.83" stroke-linecap="round" stroke-linejoin="round"/>
<path d="M-16.3561 644.071C9.58878 655.132 40.5044 660.972 62.1105 678.132C84.5429 696.291 110.234 711.131 137.759 721.827C165.463 732.2 194.165 739.19 222.9 742.563C262.145 747.416 301.016 747.154 338.142 741.788C379.933 735.823 422.602 725.246 462.46 730.45C515.225 737.229 548.822 776.775 595.954 794.727C613.152 800.94 630.966 804.879 648.7 806.391C714.298 813.201 789.294 799.798 858.124 805.133C937.129 811.271 1041.44 832.897 1109.37 865.433C1117.51 869.296 1125.34 873.72 1132.77 878.651C1190.69 917.297 1194.66 974.034 1265.9 992.909C1324.17 1008.36 1391.47 1007.02 1460.07 1004.03C1480.15 1003.09 1500.34 1002.01 1520.46 1001.04C1564.27 998.946 1608.09 997.526 1651.93 996.785C1724.13 995.529 1796.46 995.989 1865.3 1005.13C1960.87 1017.66 2054.86 1053.21 2086.69 1132.63" stroke="url(#paint24_linear_465_3370)" stroke-width="0.85" stroke-linecap="round" stroke-linejoin="round"/>
<path d="M-15.4145 658.859C10.4534 670.633 41.4876 676.655 62.8118 694.421C84.8152 713.074 110.427 728.257 138.029 739.01C165.791 749.38 194.603 756.134 223.366 759.016C262.943 763.167 301.97 761.9 338.939 755.264C380.939 747.939 423.753 735.426 463.616 739.557C516.882 745.142 550.456 785.205 598.02 802.527C615.411 808.533 633.387 812.151 651.196 813.231C716.988 818.52 792.41 802.509 861.191 806.837C940.2 811.572 1045.36 833.424 1112.47 867.128C1120.56 871.165 1128.32 875.77 1135.64 880.887C1193.2 921.379 1194.68 980.867 1266.24 1001.32C1324.43 1017.97 1392.03 1017.35 1460.97 1014.68C1481.09 1013.84 1501.3 1012.84 1521.45 1011.93C1565.25 1010.04 1609.08 1008.7 1652.94 1007.89C1725.15 1006.49 1797.49 1006.58 1866.36 1015.47C1962.15 1027.66 2056.37 1063.39 2086.09 1144.47" stroke="url(#paint25_linear_465_3370)" stroke-width="0.88" stroke-linecap="round" stroke-linejoin="round"/>
<path d="M-14.4807 673.666C11.3022 686.106 42.4551 692.375 63.4659 710.756C85.0403 729.897 110.583 745.43 138.276 756.249C166.1 766.631 195.03 773.144 223.816 775.506C263.747 778.972 302.942 776.717 339.752 768.835C381.748 760.126 424.904 745.673 464.883 748.93C518.918 753.346 552.186 793.873 600.221 810.735C617.067 816.64 635.009 819.406 653.773 820.477C719.844 824.238 795.662 805.76 864.361 808.956C943.532 812.443 1049.37 834.338 1115.67 869.239C1123.75 873.449 1131.46 878.247 1138.69 883.569C1195.84 925.888 1194.91 988.157 1266.72 1010.17C1324.87 1027.98 1392.8 1028.11 1462.05 1025.75C1482.18 1025.02 1502.45 1024.09 1522.61 1023.23C1566.47 1021.36 1610.34 1019.96 1654.21 1019.05C1726.44 1017.54 1798.8 1017.24 1867.65 1025.84C1963.61 1037.7 2058.07 1073.6 2085.7 1156.33" stroke="url(#paint26_linear_465_3370)" stroke-width="0.91" stroke-linecap="round" stroke-linejoin="round"/>
<path d="M-13.6104 688.424C12.0561 701.539 43.2962 708.064 64.0956 726.948C85.207 746.581 110.681 762.468 138.475 773.336C166.365 783.723 195.411 789.999 224.21 791.863C264.501 794.609 303.854 791.354 340.493 782.244C382.635 772.061 425.959 755.747 465.983 758.103C520.645 761.289 553.757 802.321 602.058 818.549C619.109 824.298 637.081 826.66 655.985 827.329C722.297 829.59 798.518 808.626 867.191 810.627C946.296 812.813 1053.03 834.84 1118.53 870.901C1126.6 875.299 1134.26 880.293 1141.42 885.811C1198.16 929.975 1194.77 994.969 1266.89 1018.58C1324.95 1037.58 1393.19 1038.44 1462.77 1036.41C1482.95 1035.77 1503.25 1034.91 1523.44 1034.11C1567.29 1032.35 1611.17 1030.97 1655.08 1029.96C1727.4 1028.38 1799.79 1027.82 1868.62 1036.05C1964.75 1047.57 2059.47 1083.65 2085.01 1168.04" stroke="url(#paint27_linear_465_3370)" stroke-width="0.93" stroke-linecap="round" stroke-linejoin="round"/>
<path d="M-12.5821 703.27C12.9994 717.052 44.3582 723.824 64.8914 743.277C85.8741 763.05 109.872 779.415 138.84 790.559C166.809 800.951 195.981 806.995 224.793 808.366C265.406 810.375 304.868 806.12 341.282 795.805C383.562 784.232 427.086 765.984 467.179 767.446C522.483 769.367 555.408 811.044 604.117 826.631C621.104 832.134 639.351 834.239 658.42 834.45C724.979 835.191 801.581 811.732 870.18 812.648C949.313 813.574 1056.81 835.702 1121.55 872.914C1129.6 877.502 1137.21 882.694 1144.27 888.413C1200.61 934.405 1194.81 1002.16 1267.2 1027.33C1325.23 1047.53 1393.77 1049.12 1463.67 1047.4C1483.88 1046.89 1504.2 1046.09 1524.43 1045.34C1568.31 1043.68 1612.21 1042.32 1656.13 1041.24C1728.37 1039.45 1800.81 1038.43 1869.57 1046.45C1965.91 1057.65 2061 1093.86 2084.3 1179.94" stroke="url(#paint28_linear_465_3370)" stroke-width="0.96" stroke-linecap="round" stroke-linejoin="round"/>
<path d="M-11.6403 718.058C13.8484 732.525 45.3259 739.544 65.4982 759.526C86.1912 779.923 110.024 796.548 139.047 807.693C165.242 817.761 194.401 823.479 225.196 824.77C262.627 826.345 302.35 821.399 342.126 809.236C384.529 796.31 428.316 776.109 468.501 776.557C524.416 777.22 557.2 819.431 606.277 834.47C623.509 839.791 641.739 841.537 660.956 841.328C727.788 840.559 804.792 814.615 873.333 814.41C952.503 814.057 1060.75 836.257 1124.74 874.667C1132.76 879.433 1140.31 884.808 1147.29 890.709C1203.21 938.545 1194.97 1009.01 1267.67 1035.82C1325.66 1057.19 1394.47 1059.51 1464.71 1058.11C1484.96 1057.69 1505.31 1056.97 1525.55 1056.25C1569.46 1054.71 1613.37 1053.38 1657.28 1052.28C1729.54 1050.37 1802.01 1048.96 1870.74 1056.73C1967.25 1067.58 2062.45 1103.99 2083.81 1191.71" stroke="url(#paint29_linear_465_3370)" stroke-width="0.98" stroke-linecap="round" stroke-linejoin="round"/>
<path d="M-10.7059 732.864C14.7292 747.923 46.2704 755.254 66.271 775.844C86.6426 796.809 110.319 813.741 139.389 824.906C167.489 835.372 196.907 840.969 225.701 841.327C263.148 842.338 303.049 836.37 342.978 822.845C385.552 808.52 429.397 786.326 469.713 785.864C526.215 785.259 558.883 828.013 608.329 842.505C625.544 847.533 644.049 849.088 663.415 848.393C730.518 846.246 807.871 817.684 876.362 816.339C955.56 814.725 1064.54 837.035 1127.8 876.587C1135.79 881.553 1143.29 887.119 1150.19 893.199C1205.56 942.935 1195.17 1016.02 1268.01 1044.48C1325.99 1066.93 1395.09 1070.1 1465.66 1069.04C1485.88 1068.75 1506.3 1068.05 1526.57 1067.39C1570.53 1065.97 1614.46 1064.65 1658.36 1063.44C1730.64 1061.4 1803.13 1059.61 1871.83 1067.11C1968.53 1077.59 2063.98 1114.19 2083.2 1203.57" stroke="url(#paint30_linear_465_3370)" stroke-width="1.01" stroke-linecap="round" stroke-linejoin="round"/>
<path d="M-9.76341 747.652C15.5476 763.471 47.1916 770.954 66.9732 792.132C87.0313 813.712 110.551 830.885 139.637 842.079C197.101 864.169 270.349 863.416 343.831 836.257C386.574 820.533 430.532 796.412 471.051 795.069C528.125 793.169 560.692 836.495 610.522 850.402C687.494 871.922 791.261 821.356 879.524 818.148C969.315 814.879 1098.2 844.073 1153.19 895.664C1208.17 947.255 1195.36 1023.06 1268.48 1053.1C1342.96 1083.6 1436.44 1081.22 1527.7 1078.48L1659.56 1074.56C1731.85 1072.38 1804.38 1070.22 1873.01 1077.43C1969.93 1087.59 2065.59 1124.33 2082.72 1215.39" stroke="url(#paint31_linear_465_3370)" stroke-width="1.04" stroke-linecap="round" stroke-linejoin="round"/>
</g>
<defs>
<linearGradient id="paint0_linear_465_3370" x1="2100.65" y1="847.713" x2="229.197" y2="1420.51" gradientUnits="userSpaceOnUse">
<stop stop-color="#D630FF"/>
<stop offset="1" stop-color="#B130FF"/>
</linearGradient>
<linearGradient id="paint1_linear_465_3370" x1="2100.57" y1="858.312" x2="253.732" y2="1444.7" gradientUnits="userSpaceOnUse">
<stop stop-color="#D630FF"/>
<stop offset="1" stop-color="#B130FF"/>
</linearGradient>
<linearGradient id="paint2_linear_465_3370" x1="2100.57" y1="868.591" x2="278.238" y2="1467.9" gradientUnits="userSpaceOnUse">
<stop stop-color="#D630FF"/>
<stop offset="1" stop-color="#B130FF"/>
</linearGradient>
<linearGradient id="paint3_linear_465_3370" x1="2100.92" y1="878.82" x2="302.834" y2="1490.49" gradientUnits="userSpaceOnUse">
<stop stop-color="#D630FF"/>
<stop offset="1" stop-color="#B130FF"/>
</linearGradient>
<linearGradient id="paint4_linear_465_3370" x1="2100.88" y1="888.921" x2="327.89" y2="1512.54" gradientUnits="userSpaceOnUse">
<stop stop-color="#D630FF"/>
<stop offset="1" stop-color="#B130FF"/>
</linearGradient>
<linearGradient id="paint5_linear_465_3370" x1="2101.18" y1="899.068" x2="352.74" y2="1533.98" gradientUnits="userSpaceOnUse">
<stop stop-color="#D630FF"/>
<stop offset="1" stop-color="#B130FF"/>
</linearGradient>
<linearGradient id="paint6_linear_465_3370" x1="2101.18" y1="909.089" x2="376.058" y2="1553.95" gradientUnits="userSpaceOnUse">
<stop stop-color="#D630FF"/>
<stop offset="1" stop-color="#B130FF"/>
</linearGradient>
<linearGradient id="paint7_linear_465_3370" x1="2101.44" y1="919.064" x2="397.826" y2="1572.54" gradientUnits="userSpaceOnUse">
<stop stop-color="#D630FF"/>
<stop offset="1" stop-color="#B130FF"/>
</linearGradient>
<linearGradient id="paint8_linear_465_3370" x1="2101.64" y1="929.185" x2="417.808" y2="1590.16" gradientUnits="userSpaceOnUse">
<stop stop-color="#D630FF"/>
<stop offset="1" stop-color="#B130FF"/>
</linearGradient>
<linearGradient id="paint9_linear_465_3370" x1="2101.87" y1="939.047" x2="435.11" y2="1605.95" gradientUnits="userSpaceOnUse">
<stop stop-color="#D630FF"/>
<stop offset="1" stop-color="#B130FF"/>
</linearGradient>
<linearGradient id="paint10_linear_465_3370" x1="2102.15" y1="948.986" x2="450.707" y2="1620.9" gradientUnits="userSpaceOnUse">
<stop stop-color="#D630FF"/>
<stop offset="1" stop-color="#B130FF"/>
</linearGradient>
<linearGradient id="paint11_linear_465_3370" x1="2102.33" y1="958.831" x2="444.184" y2="1626.19" gradientUnits="userSpaceOnUse">
<stop stop-color="#D630FF"/>
<stop offset="1" stop-color="#B130FF"/>
</linearGradient>
<linearGradient id="paint12_linear_465_3370" x1="2102.58" y1="968.89" x2="431.581" y2="1629" gradientUnits="userSpaceOnUse">
<stop stop-color="#D630FF"/>
<stop offset="1" stop-color="#B130FF"/>
</linearGradient>
<linearGradient id="paint13_linear_465_3370" x1="2102.7" y1="978.764" x2="419.093" y2="1631.44" gradientUnits="userSpaceOnUse">
<stop stop-color="#D630FF"/>
<stop offset="1" stop-color="#B130FF"/>
</linearGradient>
<linearGradient id="paint14_linear_465_3370" x1="2103.03" y1="988.63" x2="406.752" y2="1633.61" gradientUnits="userSpaceOnUse">
<stop stop-color="#D630FF"/>
<stop offset="1" stop-color="#B130FF"/>
</linearGradient>
<linearGradient id="paint15_linear_465_3370" x1="2103.42" y1="998.567" x2="394.901" y2="1635.96" gradientUnits="userSpaceOnUse">
<stop stop-color="#D630FF"/>
<stop offset="1" stop-color="#B130FF"/>
</linearGradient>
<linearGradient id="paint16_linear_465_3370" x1="2103.62" y1="1008.43" x2="383.216" y2="1638.06" gradientUnits="userSpaceOnUse">
<stop stop-color="#D630FF"/>
<stop offset="1" stop-color="#B130FF"/>
</linearGradient>
<linearGradient id="paint17_linear_465_3370" x1="2103.8" y1="1018.22" x2="371.535" y2="1639.82" gradientUnits="userSpaceOnUse">
<stop stop-color="#D630FF"/>
<stop offset="1" stop-color="#B130FF"/>
</linearGradient>
<linearGradient id="paint18_linear_465_3370" x1="2104.11" y1="1028.15" x2="360.473" y2="1641.91" gradientUnits="userSpaceOnUse">
<stop stop-color="#D630FF"/>
<stop offset="1" stop-color="#B130FF"/>
</linearGradient>
<linearGradient id="paint19_linear_465_3370" x1="2104.63" y1="1038.04" x2="349.545" y2="1643.81" gradientUnits="userSpaceOnUse">
<stop stop-color="#D630FF"/>
<stop offset="1" stop-color="#B130FF"/>
</linearGradient>
<linearGradient id="paint20_linear_465_3370" x1="2104.63" y1="1047.84" x2="332.299" y2="1641.76" gradientUnits="userSpaceOnUse">
<stop stop-color="#D630FF"/>
<stop offset="1" stop-color="#B130FF"/>
</linearGradient>
<linearGradient id="paint21_linear_465_3370" x1="2104.98" y1="1057.63" x2="315.424" y2="1639.33" gradientUnits="userSpaceOnUse">
<stop stop-color="#D630FF"/>
<stop offset="1" stop-color="#B130FF"/>
</linearGradient>
<linearGradient id="paint22_linear_465_3370" x1="2105.23" y1="1067.57" x2="299.579" y2="1637.34" gradientUnits="userSpaceOnUse">
<stop stop-color="#D630FF"/>
<stop offset="1" stop-color="#B130FF"/>
</linearGradient>
<linearGradient id="paint23_linear_465_3370" x1="2105.58" y1="1077.33" x2="283.694" y2="1634.65" gradientUnits="userSpaceOnUse">
<stop stop-color="#D630FF"/>
<stop offset="1" stop-color="#B130FF"/>
</linearGradient>
<linearGradient id="paint24_linear_465_3370" x1="2105.74" y1="1087.23" x2="269.027" y2="1632.49" gradientUnits="userSpaceOnUse">
<stop stop-color="#D630FF"/>
<stop offset="1" stop-color="#B130FF"/>
</linearGradient>
<linearGradient id="paint25_linear_465_3370" x1="2105.97" y1="1097.08" x2="254.613" y2="1630.04" gradientUnits="userSpaceOnUse">
<stop stop-color="#D630FF"/>
<stop offset="1" stop-color="#B130FF"/>
</linearGradient>
<linearGradient id="paint26_linear_465_3370" x1="2106.4" y1="1106.98" x2="240.621" y2="1627.54" gradientUnits="userSpaceOnUse">
<stop stop-color="#D630FF"/>
<stop offset="1" stop-color="#B130FF"/>
</linearGradient>
<linearGradient id="paint27_linear_465_3370" x1="2106.55" y1="1116.71" x2="227.142" y2="1624.85" gradientUnits="userSpaceOnUse">
<stop stop-color="#D630FF"/>
<stop offset="1" stop-color="#B130FF"/>
</linearGradient>
<linearGradient id="paint28_linear_465_3370" x1="2106.68" y1="1126.6" x2="214.352" y2="1622.33" gradientUnits="userSpaceOnUse">
<stop stop-color="#D630FF"/>
<stop offset="1" stop-color="#B130FF"/>
</linearGradient>
<linearGradient id="paint29_linear_465_3370" x1="2107.01" y1="1136.41" x2="201.909" y2="1619.7" gradientUnits="userSpaceOnUse">
<stop stop-color="#D630FF"/>
<stop offset="1" stop-color="#B130FF"/>
</linearGradient>
<linearGradient id="paint30_linear_465_3370" x1="2107.24" y1="1146.27" x2="190.021" y2="1617.21" gradientUnits="userSpaceOnUse">
<stop stop-color="#D630FF"/>
<stop offset="1" stop-color="#B130FF"/>
</linearGradient>
<linearGradient id="paint31_linear_465_3370" x1="2107.6" y1="1156.1" x2="178.527" y2="1614.64" gradientUnits="userSpaceOnUse">
<stop stop-color="#D630FF"/>
<stop offset="1" stop-color="#B130FF"/>
</linearGradient>
<clipPath id="clip0_465_3370">
<rect width="2316.49" height="754.823" fill="white" transform="translate(81.7734 0.468994) rotate(22.7601)"/>
</clipPath>
</defs>
</svg>
