<svg width="1707" height="1463" viewBox="0 0 1707 1463" fill="none" xmlns="http://www.w3.org/2000/svg">
<g opacity="0.35" clip-path="url(#clip0_465_3337)">
<path d="M2134.15 816.866C1976.11 660.277 1768.72 537.184 1541.68 500.696C1406.6 479.056 1265.88 487.667 1136.88 442.279C978.133 386.408 862.285 257.258 775.1 124.218C687.916 -8.8214 619.929 -152.511 512.962 -273.823C456.443 -337.969 383.449 -397.853 295.374 -411.313" stroke="url(#paint0_linear_465_3337)" stroke-width="0.22" stroke-linecap="round" stroke-linejoin="round"/>
<path d="M291.498 -396.945C318.406 -392.296 345.362 -383.037 371.08 -369.609C396.919 -355.803 421.524 -339.054 444.25 -319.803C466.905 -300.684 488.254 -280.047 508.062 -258.118C536.431 -226.54 563.035 -193.631 587.704 -159.599C615.926 -120.773 642.042 -80.9801 667.591 -40.2831C693.615 1.19119 718.217 43.946 744.651 85.4616C754.578 101.077 764.761 116.523 775.199 131.799C817.284 193.428 866.206 253.491 922.231 306.308C984.516 364.971 1056.98 414.685 1139.24 445.211C1147.71 448.366 1156.18 451.305 1164.66 454.026C1226.79 474.139 1289.09 483.456 1354.94 490.528C1415.99 496.856 1478.07 501.195 1539.08 511.404C1558.49 514.611 1577.75 518.42 1596.88 522.83C1705.91 548.01 1813.79 592.912 1914.57 655.065C1992.86 702.92 2065.52 761.253 2129.74 827.828" stroke="url(#paint1_linear_465_3337)" stroke-width="0.25" stroke-linecap="round" stroke-linejoin="round"/>
<path d="M287.505 -382.6C314.27 -377.435 340.981 -367.722 366.37 -353.924C391.884 -339.577 416.215 -322.618 438.84 -303.414C461.479 -284.368 482.954 -263.955 503.075 -242.355C531.648 -211.608 558.661 -179.614 583.97 -146.543C612.878 -109.139 639.519 -70.7771 665.64 -31.1426C692.488 9.60299 716.953 52.588 743.941 93.6765C754.023 109.132 764.487 124.277 775.204 139.215C818.242 199.28 868.116 257.317 924.466 309.041C987.19 366.521 1060.5 416.288 1141.5 447.96C1149.88 451.228 1158.24 454.329 1166.58 457.264C1227.9 478.79 1286.83 490.477 1352.44 498.823C1413.05 506.524 1475.17 511.391 1536.43 521.981C1555.82 525.304 1575.08 529.192 1594.22 533.645C1635.97 543.372 1677.63 555.914 1718.9 571.175C1785.19 595.662 1850.06 627.176 1912.19 665.07C1992.09 713.813 2065.52 772.864 2125.24 838.816" stroke="url(#paint2_linear_465_3337)" stroke-width="0.27" stroke-linecap="round" stroke-linejoin="round"/>
<path d="M283.625 -368.344C310.244 -362.692 336.712 -352.536 361.766 -338.36C386.932 -323.484 410.992 -306.342 433.54 -287.225C456.126 -268.199 477.704 -247.984 498.13 -226.716C526.876 -196.74 554.313 -165.657 580.329 -133.593C609.772 -97.3991 637.623 -60.1743 663.775 -22.0603C691.441 17.9245 715.782 61.1246 743.297 101.816C753.651 117.161 764.275 131.934 775.176 146.629C819.754 206.145 870.65 261.635 926.692 311.82C989.881 368.089 1064.03 417.955 1143.77 450.727C1152.14 454.195 1160.38 457.459 1168.52 460.519C1228.98 483.504 1284.57 497.355 1349.97 507.087C1410.11 516.049 1472.31 521.542 1533.68 532.473C1553.06 535.912 1572.33 539.885 1591.49 544.392C1633.35 554.247 1675.14 566.854 1716.54 582.12C1782.87 606.424 1847.83 637.682 1910.12 675.269C1990.3 723.775 2063.91 783.012 2121.08 849.888" stroke="url(#paint3_linear_465_3337)" stroke-width="0.3" stroke-linecap="round" stroke-linejoin="round"/>
<path d="M279.686 -354.059C306.774 -347.304 333.66 -337.094 357.118 -322.783C381.938 -307.335 405.734 -289.942 428.196 -270.831C450.773 -251.876 472.501 -231.908 493.276 -211.024C522.843 -181.392 550.394 -150.93 576.752 -120.558C606.85 -85.7998 635.309 -49.868 662 -12.9246C690.49 26.3315 714.835 69.6432 742.731 110.024C753.26 125.173 764.127 139.675 775.346 153.976C821.107 211.916 872.718 265.807 929.078 314.498C992.725 369.602 1067.71 419.536 1146.21 453.424C1154.47 457.012 1162.6 460.439 1170.62 463.705C1228.81 488.105 1288.33 505.443 1347.61 515.264C1407.28 525.47 1469.55 531.634 1531.22 543.03C1550.6 546.543 1569.9 550.614 1589.11 555.241C1630.86 565.166 1672.52 577.731 1713.82 592.852C1780.19 616.956 1845.23 647.96 1907.66 685.253C1988.11 733.49 2061.88 793.007 2116.56 860.747" stroke="url(#paint4_linear_465_3337)" stroke-width="0.33" stroke-linecap="round" stroke-linejoin="round"/>
<path d="M275.732 -339.759C302.522 -332.403 329.44 -321.919 352.433 -307.128C376.892 -291.168 400.429 -273.575 422.819 -254.519C445.563 -235.526 467.628 -215.429 488.361 -195.304C518.163 -166.358 546.132 -136.825 573.109 -107.529C603.86 -74.2219 632.929 -39.5822 660.159 -3.79313C689.473 34.7343 713.635 78.2892 742.118 118.245C752.795 133.228 763.912 147.411 775.401 161.41C820.976 216.986 874.125 268.749 931.363 317.25C995.467 371.188 1071.29 421.222 1148.51 456.193C1156.68 459.881 1164.72 463.456 1172.63 466.917C1231.36 492.801 1280.24 510.883 1345.22 523.47C1404.36 534.964 1466.72 541.787 1528.69 553.662C1548.06 557.313 1567.32 561.424 1586.47 565.994C1628.27 576.087 1669.98 588.707 1711.34 603.774C1777.74 627.71 1842.84 658.463 1905.42 695.443C1986.18 743.411 2060.15 803.212 2112.3 871.814" stroke="url(#paint5_linear_465_3337)" stroke-width="0.35" stroke-linecap="round" stroke-linejoin="round"/>
<path d="M271.717 -325.544C298.196 -317.57 325.112 -306.816 347.701 -291.572C371.78 -275.081 395.06 -257.271 417.388 -238.259C440.074 -219.317 462.323 -199.463 483.352 -179.67C513.408 -151.392 541.859 -122.705 569.377 -94.5523C600.762 -62.6991 630.436 -29.3465 658.217 5.29981C688.36 43.1307 712.482 86.9219 741.397 126.395C752.263 141.167 763.61 155.094 775.35 168.775C821.744 222.857 875.929 272.616 933.546 319.962C998.09 372.719 1074.77 422.869 1150.73 458.908C1158.78 462.727 1166.69 466.48 1174.47 470.165C1232.34 497.509 1277.87 517.722 1342.63 531.711C1401.35 544.404 1463.78 551.884 1525.86 564.1C1545.25 567.858 1564.53 572.066 1583.72 576.724C1625.52 586.926 1667.23 599.56 1708.61 614.553C1775.05 638.294 1840.25 668.797 1902.97 705.491C1984.08 753.258 2058.12 813.207 2107.75 882.703" stroke="url(#paint6_linear_465_3337)" stroke-width="0.38" stroke-linecap="round" stroke-linejoin="round"/>
<path d="M267.854 -311.19C294.022 -302.599 320.942 -291.543 343.102 -275.896C366.786 -258.862 389.823 -240.832 412.122 -221.876C434.737 -202.97 457.526 -183.72 478.509 -163.913C508.339 -135.729 537.712 -108.496 565.838 -81.484C597.861 -51.1115 628.144 -19.0443 656.466 14.4848C687.512 51.576 711.312 95.4586 740.869 134.638C751.776 148.936 763.344 162.821 775.523 176.233C822.731 228.79 877.945 276.592 935.936 322.752C1004.03 376.705 1077.02 423.391 1153.16 461.684C1161.19 465.683 1168.99 469.603 1176.56 473.446C1233.59 502.265 1275.74 524.56 1340.3 540.002C1398.55 553.922 1461.07 562.06 1523.35 574.67C1542.78 578.59 1562.07 582.883 1581.22 587.549C1623.04 597.864 1664.76 610.513 1706.17 625.43C1773.84 649.783 1839.51 679.743 1900.73 715.6C1982.11 763.082 2056.36 823.282 2103.45 893.67" stroke="url(#paint7_linear_465_3337)" stroke-width="0.41" stroke-linecap="round" stroke-linejoin="round"/>
<path d="M263.901 -296.891C289.77 -287.698 316.709 -276.354 338.444 -260.272C361.088 -243.513 383.678 -224.848 406.765 -205.547C429.342 -186.676 452.303 -167.733 473.575 -148.211C503.567 -120.669 533.872 -94.747 562.195 -68.4544C594.152 -38.8019 625.284 -9.80503 654.626 23.616C686.561 59.9825 710.204 104.078 740.256 142.858C751.328 156.953 763.112 170.579 775.546 183.665C823.528 234.743 879.892 280.452 938.208 325.519C1007 378.308 1079.81 424.914 1155.39 464.543C1163.33 468.663 1171.04 472.769 1178.47 476.778C1234.65 507.12 1273.4 531.448 1337.77 548.326C1395.54 563.474 1458.15 572.286 1520.64 585.307C1540.02 589.287 1559.3 593.66 1578.51 598.424C1620.33 608.859 1662.07 621.529 1703.5 636.371C1771.26 660.619 1837.05 690.22 1898.36 725.828C1979.99 773.023 2054.45 833.491 2099.01 904.773" stroke="url(#paint8_linear_465_3337)" stroke-width="0.43" stroke-linecap="round" stroke-linejoin="round"/>
<path d="M259.962 -282.606C285.558 -272.762 312.471 -261.197 333.788 -244.647C356.003 -227.485 378.284 -208.553 401.41 -189.218C423.93 -170.398 446.625 -151.313 468.642 -132.508C499.409 -106.255 529.24 -80.1871 558.567 -55.4396C591.624 -27.517 622.964 0.362868 652.786 32.7475C685.611 68.3893 709.046 112.679 739.619 151.03C750.854 164.947 762.873 178.323 775.597 191.068C824.38 240.636 881.84 284.313 940.475 328.253C1010.01 379.833 1082.71 426.325 1157.75 467.204C1165.6 471.509 1173.22 475.753 1180.49 479.942C1235.83 511.76 1271.21 538.156 1335.39 556.485C1392.66 572.843 1455.41 582.427 1518.05 595.777C1537.42 599.889 1556.75 604.285 1575.94 609.134C1617.77 619.678 1659.51 632.362 1700.96 647.13C1768.8 671.288 1834.74 700.531 1896.11 735.841C1977.98 782.765 2052.65 843.5 2094.68 915.659" stroke="url(#paint9_linear_465_3337)" stroke-width="0.46" stroke-linecap="round" stroke-linejoin="round"/>
<path d="M256.009 -268.307C281.174 -257.98 308.276 -245.973 329.113 -229.04C350.83 -211.399 372.904 -192.273 396.054 -172.889C418.536 -154.103 441.458 -135.194 463.728 -116.788C494.716 -91.2053 524.985 -66.0492 554.924 -42.4095C588.549 -15.8521 620.644 10.5309 650.946 41.8791C684.679 76.8135 707.887 121.28 739.006 159.251C750.418 172.978 762.666 186.096 775.654 198.503C825.224 246.576 883.82 288.175 942.704 330.953C1008.96 379.137 1089.18 429.761 1160 469.921C1167.82 474.336 1175.3 478.778 1182.51 483.219C1236.98 516.542 1268.98 544.956 1332.96 564.737C1389.73 582.306 1452.52 592.609 1515.45 606.341C1534.81 610.58 1554.14 615.04 1573.34 619.922C1615.19 630.595 1656.94 643.305 1698.43 658.001C1766.35 682.068 1832.39 710.921 1893.83 745.964C1975.97 792.586 2050.82 853.587 2090.35 926.643" stroke="url(#paint10_linear_465_3337)" stroke-width="0.48" stroke-linecap="round" stroke-linejoin="round"/>
<path d="M252.143 -254.066C277.072 -243.053 304.053 -230.911 324.51 -213.476C345.757 -195.387 367.563 -176.038 390.689 -156.703C413.1 -137.954 436.173 -119.291 458.772 -101.214C489.968 -76.2867 520.732 -51.9912 551.246 -29.4934C585.452 -4.31629 618.301 20.5699 649.056 50.9118C683.782 85.1597 706.76 129.692 738.358 167.358C749.944 180.902 762.426 193.759 775.687 205.809C826.012 252.385 885.764 291.923 945.016 333.674C1011.73 380.661 1092.8 431.481 1162.36 472.629C1170.09 477.214 1177.47 481.809 1184.48 486.364C1238.12 521.227 1266.72 551.642 1330.5 572.907C1386.8 591.656 1449.69 602.697 1512.82 616.808C1532.17 621.142 1551.5 625.681 1570.73 630.612C1612.97 641.483 1654.68 654.192 1695.84 668.741C1763.84 692.718 1830.01 721.196 1891.48 755.971C1973.88 802.306 2048.95 863.592 2085.95 937.524" stroke="url(#paint11_linear_465_3337)" stroke-width="0.51" stroke-linecap="round" stroke-linejoin="round"/>
<path d="M248.137 -239.706C272.755 -228.076 299.687 -215.57 319.8 -197.791C340.653 -179.376 362.116 -159.683 385.318 -140.28C407.658 -121.566 430.901 -103.131 453.838 -85.4313C485.275 -61.1577 516.462 -37.7589 547.616 -16.3991C581.923 7.45909 615.182 33.012 647.215 60.1228C684.652 91.3402 705.546 138.432 737.725 175.641C749.48 189.227 762.687 201.153 775.724 213.307C825.534 259.803 887.672 295.829 947.301 336.505C1014.51 382.361 1096.37 433.453 1164.68 475.574C1172.33 480.296 1179.58 485.074 1186.39 489.761C1239.19 526.147 1264.39 558.547 1328.13 581.289C1383.94 601.233 1446.92 612.98 1510.34 627.587C1529.67 632.014 1549.03 636.635 1568.25 641.645C1610.4 652.531 1652.06 665.233 1693.25 679.751C1761.34 703.622 1827.63 731.742 1889.14 766.233C1971.93 812.402 2047.06 873.818 2081.54 948.645" stroke="url(#paint12_linear_465_3337)" stroke-width="0.54" stroke-linecap="round" stroke-linejoin="round"/>
<path d="M244.121 -225.49C268.428 -213.242 295.485 -200.57 315.048 -182.252C335.355 -163.267 356.659 -143.472 379.905 -124.002C402.207 -105.323 425.581 -87.1503 448.847 -69.7799C480.505 -46.1769 512.155 -23.6406 543.896 -3.43774C578.791 18.9316 612.662 43.1898 645.298 69.1858C683.771 99.5921 704.329 146.982 737.009 183.824C748.961 197.02 761.906 209.376 775.682 220.735C827.474 264.363 889.593 299.719 949.489 339.25C1017.1 383.89 1099.89 435.135 1166.9 478.242C1174.49 483.104 1181.63 488.049 1188.24 492.851C1240.24 530.858 1262 565.146 1325.47 589.415C1380.76 610.52 1443.87 623.007 1507.4 637.939C1526.74 642.479 1546.1 647.179 1565.31 652.236C1607.56 663.34 1649.3 676.089 1690.52 690.483C1758.57 714.176 1825.1 742.024 1886.68 776.249C1969.75 822.149 2045.05 883.798 2077.04 959.553" stroke="url(#paint13_linear_465_3337)" stroke-width="0.56" stroke-linecap="round" stroke-linejoin="round"/>
<path d="M240.244 -211.122C264.253 -198.272 291.309 -185.33 310.467 -166.559C330.286 -147.142 351.341 -127.108 374.663 -107.57C396.927 -88.9255 420.458 -70.9659 444.08 -53.9553C475.317 -31.2074 507.472 -9.95073 540.388 9.71182C575.861 30.5705 610.346 53.5344 643.592 78.4369C682.972 107.945 703.304 155.702 736.551 192.102C748.693 205.124 761.876 217.219 775.907 228.212C828.487 270.345 891.747 303.656 951.936 342.091C1020.02 385.55 1103.59 437.067 1169.4 481.07C1176.9 486.102 1183.95 491.217 1190.46 496.251C1241.58 535.747 1260.01 572.057 1323.25 597.776C1378.06 620.076 1441.24 633.284 1504.9 648.541C1524.24 653.193 1543.61 657.957 1562.84 663.079C1605.07 674.299 1646.82 687.064 1688.07 701.375C1756.18 724.928 1822.86 752.452 1884.5 786.378C1967.85 832.04 2043.36 893.958 2072.75 970.538" stroke="url(#paint14_linear_465_3337)" stroke-width="0.59" stroke-linecap="round" stroke-linejoin="round"/>
<path d="M236.304 -196.837C260.002 -183.371 287.09 -170.155 305.81 -150.934C325.948 -129.994 347.17 -110.044 369.345 -91.2071C391.877 -72.4918 415.193 -54.8014 439.185 -38.2183C470.748 -16.0194 503.361 4.3544 536.796 22.7608C573.231 42.6019 609.358 61.326 641.776 87.6176C680.31 118.839 702.183 164.337 735.976 200.357C748.308 213.211 761.724 225.051 776.001 235.681C829.289 276.331 893.746 307.535 954.259 344.877C1022.78 387.186 1107.24 438.869 1171.75 483.857C1179.19 489.044 1186.12 494.327 1192.5 499.544C1242.73 540.608 1257.77 578.824 1320.83 606.059C1375.14 629.49 1438.45 643.438 1502.39 659.191C1521.73 663.953 1541.1 668.798 1560.35 673.968C1602.55 685.282 1644.3 698.074 1685.62 712.346C1753.76 735.775 1820.63 762.943 1882.3 796.601C1965.96 841.996 2041.6 904.145 2068.48 981.619" stroke="url(#paint15_linear_465_3337)" stroke-width="0.62" stroke-linecap="round" stroke-linejoin="round"/>
<path d="M232.365 -182.553C255.751 -168.469 282.851 -154.998 301.134 -135.327C320.766 -113.939 341.781 -93.737 363.984 -74.9102C386.497 -56.2125 409.939 -38.7377 434.156 -22.6009C466.075 -0.958943 499.145 18.5367 533.059 35.7052C570.067 54.2133 607.016 71.3652 639.84 96.6636C679.35 127.102 700.929 172.852 735.263 208.461C747.778 221.16 761.423 232.75 775.943 243.014C829.977 282.213 895.63 311.312 956.464 347.527C1025.45 388.624 1110.74 440.613 1173.98 486.525C1180.99 491.615 1187.81 497.014 1194.39 502.7C1243.77 545.335 1255.45 585.459 1318.28 614.176C1372.02 638.702 1435.5 653.471 1499.66 669.62C1518.98 674.492 1538.38 679.418 1557.62 684.636C1599.81 696.087 1641.58 708.896 1682.94 723.065C1751.15 746.386 1818.15 773.213 1879.95 806.656C1963.82 851.841 2039.71 914.18 2064.08 992.533" stroke="url(#paint16_linear_465_3337)" stroke-width="0.64" stroke-linecap="round" stroke-linejoin="round"/>
<path d="M228.412 -168.253C251.5 -153.567 278.65 -139.807 296.477 -119.702C315.592 -97.9125 336.394 -77.4814 358.61 -58.6774C381.167 -39.9547 404.799 -22.658 429.296 -6.94109C461.58 14.1732 495.107 32.797 529.475 48.7071C567.038 65.8651 604.822 81.4297 638.059 105.767C678.578 135.425 699.815 181.44 734.677 216.651C747.403 229.19 761.294 240.525 776.058 250.421C830.807 288.169 897.637 315.144 958.782 350.281C1028.23 390.213 1114.32 442.458 1176.33 489.28C1183.34 494.412 1190.05 499.983 1196.41 505.944C1243.47 551.666 1253.29 592.137 1315.84 622.396C1369.17 648.153 1432.67 663.592 1497.02 680.15C1516.35 685.119 1535.75 690.124 1555 695.406C1597.18 706.941 1638.97 719.773 1680.37 733.901C1748.62 757.098 1815.76 783.568 1877.55 816.676C1961.78 861.549 2037.78 924.181 2059.63 1003.43" stroke="url(#paint17_linear_465_3337)" stroke-width="0.67" stroke-linecap="round" stroke-linejoin="round"/>
<path d="M224.46 -153.953C247.237 -138.65 274.381 -124.652 291.808 -104.063C310.397 -81.8493 330.981 -61.1382 353.202 -42.2882C375.801 -23.5318 399.62 -6.40668 424.386 8.89026C457.072 29.4604 491.063 47.2064 525.857 61.8655C563.979 77.7057 602.612 91.6678 636.243 115.027C677.751 143.887 698.68 190.17 734.025 224.917C746.952 237.287 761.071 248.361 776.056 257.883C831.538 294.197 899.559 319.034 961.015 353.093C1030.91 391.827 1117.83 444.378 1178.59 492.094C1185.45 497.475 1192.05 503.198 1198.35 509.231C1245.98 555.052 1250.95 598.945 1313.32 630.673C1366.19 657.563 1429.67 673.67 1494.34 690.724C1513.65 695.82 1533.02 700.902 1552.31 706.219C1594.49 717.86 1636.3 730.709 1677.74 744.765C1746.03 767.87 1813.35 794 1875.18 826.824C1959.87 871.567 2035.97 934.364 2055.25 1014.52" stroke="url(#paint18_linear_465_3337)" stroke-width="0.7" stroke-linecap="round" stroke-linejoin="round"/>
<path d="M220.541 -139.652C243 -123.763 270.176 -109.493 287.166 -88.4533C305.223 -65.8318 325.611 -44.854 347.874 -25.9891C370.498 -7.26408 394.47 9.63956 419.45 24.4816C452.552 44.5184 487.01 61.3761 522.206 74.7517C560.836 89.2548 600.383 101.619 634.367 124.045C676.892 152.077 697.486 198.657 733.448 233.061C746.584 245.288 760.952 256.109 776.181 265.243C832.363 300.12 901.607 322.821 963.451 355.869C1033.82 393.423 1121.53 446.278 1181.06 494.873C1187.85 500.392 1194.33 506.287 1200.47 512.514C1247.22 559.934 1248.85 605.674 1311.12 639.018C1363.49 667.04 1427.15 683.985 1491.92 701.38C1511.32 706.624 1530.7 711.644 1550.03 717.186C1592.21 729.007 1634.02 741.877 1675.47 755.796C1743.84 778.778 1811.3 804.551 1873.19 837.124C1957.99 881.476 2034.34 944.56 2051.12 1025.59" stroke="url(#paint19_linear_465_3337)" stroke-width="0.72" stroke-linecap="round" stroke-linejoin="round"/>
<path d="M216.523 -125.436C238.672 -108.93 265.859 -94.404 282.412 -72.9143C299.932 -49.888 320.129 -28.6278 342.44 -9.7285C365.073 9.03109 389.205 25.7543 414.412 40.1462C447.947 59.6696 482.874 75.6542 518.445 87.7584C557.674 100.978 598.026 111.673 632.409 133.153C675.949 160.357 696.209 207.235 732.712 241.227C746.051 253.309 760.653 263.88 776.1 272.638C833.001 306.095 903.45 326.643 965.523 358.512C1036.26 394.815 1124.84 448.042 1183.17 497.517C1189.87 503.195 1196.25 509.254 1202.24 515.647C1248.08 564.666 1246.52 612.277 1308.46 647.144C1360.41 676.365 1424.14 694.157 1489.16 711.887C1508.49 717.205 1527.91 722.418 1547.15 727.828C1589.27 739.709 1631.1 752.602 1672.63 766.505C1741.02 789.312 1808.69 814.812 1870.64 847.087C1955.73 891.186 2032.26 954.535 2046.5 1036.45" stroke="url(#paint20_linear_465_3337)" stroke-width="0.75" stroke-linecap="round" stroke-linejoin="round"/>
<path d="M212.648 -111.068C234.498 -93.96 261.717 -79.1614 277.942 -57.151C294.896 -33.7288 314.891 -12.1763 337.243 6.76956C359.911 25.5411 384.214 42.0736 409.639 56.018C443.637 75.0166 479.038 90.1212 514.962 100.957C554.751 112.859 596.006 121.891 630.728 142.454C675.306 168.767 695.196 216.019 732.253 249.584C745.811 261.47 760.642 271.741 776.288 280.081C833.909 312.119 905.521 330.559 967.941 361.271C1039.22 396.463 1130.24 448.043 1185.62 500.311C1192.14 506.25 1198.4 512.466 1204.37 518.929C1249.29 569.546 1244.31 618.982 1306.16 655.404C1357.57 685.689 1421.38 704.202 1486.61 722.39C1505.88 727.769 1525.26 733.028 1544.61 738.587C1586.76 750.597 1628.6 763.507 1670.15 777.315C1738.64 800.049 1806.31 825.088 1868.38 857.147C1953.76 900.962 2030.47 964.577 2042.22 1047.38" stroke="url(#paint21_linear_465_3337)" stroke-width="0.77" stroke-linecap="round" stroke-linejoin="round"/>
<path d="M208.709 -96.7831C230.247 -79.0583 257.479 -64.0043 273.19 -41.612C289.589 -17.8312 309.39 3.99638 331.786 22.9809C354.499 41.7729 378.981 58.1216 404.623 71.6202C439.122 90.1079 475.017 104.338 511.289 113.906C551.611 124.519 593.684 131.868 628.844 151.519C674.406 177.002 693.98 224.569 731.583 257.754C745.366 269.534 760.448 279.588 776.323 287.578C834.65 318.212 907.547 334.408 970.197 364.132C1041.94 398.111 1133.68 450.197 1187.92 503.159C1194.36 509.257 1200.5 515.652 1206.29 522.31C1250.29 574.541 1242.02 625.81 1303.68 663.748C1354.69 695.185 1418.56 714.275 1483.96 733.047C1503.2 738.456 1522.68 743.911 1541.98 749.483C1584.1 761.598 1625.96 774.524 1667.54 788.261C1736.1 810.888 1804.03 835.672 1866.04 867.345C1951.71 910.94 2028.57 974.771 2037.79 1058.44" stroke="url(#paint22_linear_465_3337)" stroke-width="0.8" stroke-linecap="round" stroke-linejoin="round"/>
<path d="M204.756 -82.4834C225.997 -64.1565 253.26 -48.83 268.514 -26.0046C284.342 -1.84935 303.946 20.2897 326.39 39.3553C349.149 58.1784 373.82 74.3406 399.683 87.3705C434.677 105.298 471.033 118.622 507.595 126.916C548.477 136.212 591.421 141.896 626.939 160.646C673.52 185.221 692.802 233.153 730.9 265.939C744.916 277.575 760.244 287.379 776.328 294.994C835.361 324.223 909.443 338.249 972.432 366.864C1044.63 399.647 1135.46 453.824 1190.18 505.908C1196.67 512.03 1202.73 518.57 1208.3 525.458C1251.36 579.302 1239.87 632.44 1301.23 671.95C1351.71 704.469 1415.71 724.379 1481.41 743.582C1500.6 749.052 1520.13 754.638 1539.48 760.244C1581.57 772.442 1623.44 785.39 1665.08 799.088C1733.69 821.575 1801.72 845.983 1863.83 877.425C1949.78 920.75 2026.84 984.816 2033.51 1069.38" stroke="url(#paint23_linear_465_3337)" stroke-width="0.83" stroke-linecap="round" stroke-linejoin="round"/>
<path d="M200.817 -68.1989C221.727 -49.2718 249.041 -33.6558 263.858 -10.38C279.13 14.1091 298.566 36.5252 321.088 55.6242C343.886 74.4758 368.732 90.4562 394.79 103.028C430.298 120.431 467.124 132.879 503.967 139.931C545.414 147.941 589.197 151.879 625.17 169.814C672.829 193.453 691.668 241.803 730.353 274.164C744.58 285.652 760.13 295.192 776.398 302.413C836.176 330.273 911.437 342.096 974.751 369.618C1047.42 401.22 1138.95 455.728 1192.53 508.664C1198.96 514.972 1204.92 521.711 1210.33 528.798C1252.45 584.239 1237.67 639.162 1298.84 680.268C1348.88 713.905 1412.92 734.613 1478.73 754.19C1498.02 759.856 1517.46 765.437 1536.79 771.09C1578.88 783.415 1620.77 796.385 1662.44 810C1731.1 832.395 1799.31 856.448 1861.39 887.57C1947.62 930.625 2024.85 994.925 2029 1080.38" stroke="url(#paint24_linear_465_3337)" stroke-width="0.85" stroke-linecap="round" stroke-linejoin="round"/>
<path d="M196.876 -53.9143C217.481 -34.3378 244.847 -18.5116 259.2 5.24457C273.905 30.0611 293.154 52.7758 315.731 71.9534C338.585 90.8207 363.611 106.614 389.855 118.731C425.907 135.58 463.208 147.128 500.317 152.929C542.406 159.722 586.959 161.877 623.287 178.8C671.809 201.474 690.459 250.305 729.757 282.211C744.234 293.566 760.043 302.857 776.523 309.693C836.979 336.179 913.495 345.677 977.092 372.23C1050.22 402.508 1142.48 457.506 1194.9 511.277C1201.23 517.735 1207.06 524.621 1212.31 531.849C1253.49 588.918 1235.46 645.63 1296.41 688.329C1345.98 723.066 1410.08 744.558 1476.11 764.546C1495.4 770.324 1514.83 775.983 1534.18 781.701C1576.19 794.223 1618.05 807.266 1659.77 820.831C1728.48 843.085 1796.82 866.797 1859.01 897.686C1945.57 940.492 2022.96 1005.04 2024.57 1091.37" stroke="url(#paint25_linear_465_3337)" stroke-width="0.88" stroke-linecap="round" stroke-linejoin="round"/>
<path d="M192.924 -39.6149C213.231 -19.4362 240.628 -3.33758 254.484 20.8971C268.625 46.0343 287.694 69.0573 310.336 88.3275C333.243 107.227 358.46 122.831 384.896 134.464C421.506 150.781 459.288 161.449 496.654 166.021C539.192 171.505 584.701 171.937 621.424 188.073C671.055 209.893 689.263 259.063 729.158 290.687C743.153 301.77 759.207 310.244 776.592 317.384C837.812 342.516 915.508 349.812 979.397 375.268C1053.09 404.419 1145.98 459.68 1197.24 514.318C1203.5 520.935 1209.22 527.987 1214.32 535.379C1254.51 594.042 1233.29 652.592 1293.98 696.851C1343.12 732.676 1407.29 754.983 1473.51 775.365C1492.78 781.253 1512.24 786.994 1531.58 792.759C1573.65 805.316 1615.56 818.325 1657.33 831.787C1726.09 853.949 1794.58 877.304 1856.85 907.911C1943.67 950.463 2021.22 1015.24 2020.33 1102.46" stroke="url(#paint26_linear_465_3337)" stroke-width="0.91" stroke-linecap="round" stroke-linejoin="round"/>
<path d="M188.927 -25.3815C208.903 -4.60274 236.3 11.7663 249.791 36.4081C263.334 61.8586 282.223 85.1938 304.943 104.543C327.912 123.468 353.316 138.887 379.927 150.053C417.112 165.807 455.371 175.582 492.975 178.937C536.133 183.075 582.409 181.805 619.469 197.102C670.093 217.965 687.99 267.561 728.343 298.672C742.581 309.675 758.796 317.777 776.446 324.583C838.383 348.375 917.272 353.454 981.526 377.771C1055.58 405.672 1149.27 461.348 1199.4 516.823C1205.59 523.614 1211.2 530.837 1216.16 538.39C1255.37 598.662 1230.94 658.987 1291.4 704.854C1340.07 741.78 1404.29 764.87 1470.72 785.678C1490 791.663 1509.46 797.483 1528.81 803.313C1570.83 815.973 1612.76 828.999 1654.58 842.39C1723.45 864.511 1792.06 887.618 1854.43 917.882C1941.52 960.164 2019.27 1025.2 2015.85 1113.3" stroke="url(#paint27_linear_465_3337)" stroke-width="0.93" stroke-linecap="round" stroke-linejoin="round"/>
<path d="M185.052 -11.0135C204.73 10.3674 232.158 27.009 245.213 52.101C258.587 77.6425 275.925 100.947 299.665 120.941C322.707 139.897 348.306 155.137 375.09 165.842C412.82 181.004 451.508 189.87 489.294 192.013C533.036 194.882 580.133 191.848 617.55 206.324C669.194 226.2 686.703 276.345 727.651 306.984C741.91 317.733 758.469 325.681 776.423 332.109C839.091 354.546 919.153 357.389 983.692 380.659C1058.18 407.377 1152.56 463.397 1201.6 519.712C1207.71 526.676 1213.2 534.07 1218.01 541.782C1256.24 603.649 1228.64 665.798 1288.83 713.224C1337.08 751.27 1401.34 775.158 1467.97 796.361C1487.24 802.472 1506.71 808.357 1526.07 814.251C1568.09 827.017 1610.03 840.065 1651.89 853.394C1720.76 875.292 1789.56 897.982 1851.93 928.023C1939.34 970.07 2017.38 1035.34 2011.29 1124.32" stroke="url(#paint28_linear_465_3337)" stroke-width="0.96" stroke-linecap="round" stroke-linejoin="round"/>
<path d="M181.113 3.27094C200.479 25.2691 227.938 42.1831 240.479 67.657C253.376 93.6941 270.473 117.191 294.265 137.203C315.735 155.274 341.429 170.201 370.113 181.478C404.978 195.191 444.138 203.489 485.705 204.982C530.005 206.613 577.988 201.82 615.823 215.367C668.456 234.254 685.657 284.857 727.132 315.099C741.681 325.755 758.341 333.359 776.573 339.438C839.991 360.537 921.247 361.163 986.097 383.354C1061.04 408.874 1156.1 465.208 1204.04 522.409C1210.06 529.533 1215.45 537.081 1220.11 544.936C1257.34 608.412 1226.55 672.32 1286.5 721.402C1334.33 760.536 1398.62 785.206 1465.46 806.819C1484.73 813.042 1504.2 819.006 1523.57 824.932C1565.58 837.814 1607.51 850.904 1649.38 864.202C1718.3 885.993 1787.26 908.326 1849.68 938.115C1937.36 979.893 2015.44 1045.39 2006.99 1135.28" stroke="url(#paint29_linear_465_3337)" stroke-width="0.98" stroke-linecap="round" stroke-linejoin="round"/>
<path d="M177.159 17.5706C196.281 40.1105 223.699 57.3403 235.879 83.3329C248.287 109.801 265.135 133.537 288.966 153.584C312.107 172.653 338.084 187.55 365.182 197.292C400.245 210.477 439.908 217.867 482.065 218.124C526.982 218.488 575.671 211.829 613.928 224.558C667.53 242.44 684.443 293.518 726.446 323.363C741.075 333.738 758.057 341.251 776.588 346.918C840.714 366.804 923.153 365.069 988.328 386.165C1063.71 410.504 1159.43 467.18 1206.3 525.223C1212.23 532.526 1217.5 540.237 1222.04 548.238C1258.14 613.33 1224.44 679.017 1284 729.697C1331.46 769.858 1395.74 795.419 1462.79 817.459C1482 823.789 1501.53 829.804 1520.9 835.795C1562.91 848.804 1604.86 861.906 1646.75 875.099C1715.74 896.782 1784.84 918.758 1847.32 948.281C1935.29 989.774 2013.55 1055.54 2002.54 1146.29" stroke="url(#paint30_linear_465_3337)" stroke-width="1.01" stroke-linecap="round" stroke-linejoin="round"/>
<path d="M173.22 31.8552C191.977 55.0727 219.442 72.4803 231.223 98.9575C243.134 125.904 259.755 149.817 283.591 169.896C330.69 209.541 400.168 232.75 478.49 231.078C524.025 230.176 573.45 221.732 612.186 233.696C666.751 250.539 683.383 302.125 725.939 331.543C791.662 377.021 906.254 363.115 990.725 388.908C1076.66 415.141 1188.95 484.827 1224.07 551.546C1259.19 618.265 1222.33 685.728 1281.63 738C1342.06 791.154 1431.19 819.432 1518.35 846.648L1644.25 886.004C1713.29 907.547 1782.55 929.199 1845.06 958.421C1933.35 999.679 2011.77 1065.64 1998.22 1157.31" stroke="url(#paint31_linear_465_3337)" stroke-width="1.04" stroke-linecap="round" stroke-linejoin="round"/>
</g>
<defs>
<linearGradient id="paint0_linear_465_3337" x1="2135.24" y1="815.644" x2="179.339" y2="745.859" gradientUnits="userSpaceOnUse">
<stop stop-color="#D630FF"/>
<stop offset="1" stop-color="#B130FF"/>
</linearGradient>
<linearGradient id="paint1_linear_465_3337" x1="2131.7" y1="825.636" x2="194.629" y2="776.736" gradientUnits="userSpaceOnUse">
<stop stop-color="#D630FF"/>
<stop offset="1" stop-color="#B130FF"/>
</linearGradient>
<linearGradient id="paint2_linear_465_3337" x1="2128.35" y1="835.35" x2="210.214" y2="806.667" gradientUnits="userSpaceOnUse">
<stop stop-color="#D630FF"/>
<stop offset="1" stop-color="#B130FF"/>
</linearGradient>
<linearGradient id="paint3_linear_465_3337" x1="2125.34" y1="845.133" x2="226.085" y2="836.053" gradientUnits="userSpaceOnUse">
<stop stop-color="#D630FF"/>
<stop offset="1" stop-color="#B130FF"/>
</linearGradient>
<linearGradient id="paint4_linear_465_3337" x1="2122" y1="854.668" x2="242.567" y2="865.074" gradientUnits="userSpaceOnUse">
<stop stop-color="#D630FF"/>
<stop offset="1" stop-color="#B130FF"/>
</linearGradient>
<linearGradient id="paint5_linear_465_3337" x1="2118.97" y1="864.358" x2="259.052" y2="893.451" gradientUnits="userSpaceOnUse">
<stop stop-color="#D630FF"/>
<stop offset="1" stop-color="#B130FF"/>
</linearGradient>
<linearGradient id="paint6_linear_465_3337" x1="2115.7" y1="873.827" x2="274.569" y2="919.942" gradientUnits="userSpaceOnUse">
<stop stop-color="#D630FF"/>
<stop offset="1" stop-color="#B130FF"/>
</linearGradient>
<linearGradient id="paint7_linear_465_3337" x1="2112.69" y1="883.341" x2="289.072" y2="944.622" gradientUnits="userSpaceOnUse">
<stop stop-color="#D630FF"/>
<stop offset="1" stop-color="#B130FF"/>
</linearGradient>
<linearGradient id="paint8_linear_465_3337" x1="2109.57" y1="892.973" x2="302.204" y2="967.801" gradientUnits="userSpaceOnUse">
<stop stop-color="#D630FF"/>
<stop offset="1" stop-color="#B130FF"/>
</linearGradient>
<linearGradient id="paint9_linear_465_3337" x1="2106.57" y1="902.369" x2="313.399" y2="988.382" gradientUnits="userSpaceOnUse">
<stop stop-color="#D630FF"/>
<stop offset="1" stop-color="#B130FF"/>
</linearGradient>
<linearGradient id="paint10_linear_465_3337" x1="2103.59" y1="911.854" x2="323.26" y2="1007.6" gradientUnits="userSpaceOnUse">
<stop stop-color="#D630FF"/>
<stop offset="1" stop-color="#B130FF"/>
</linearGradient>
<linearGradient id="paint11_linear_465_3337" x1="2100.54" y1="921.218" x2="315.368" y2="1010.47" gradientUnits="userSpaceOnUse">
<stop stop-color="#D630FF"/>
<stop offset="1" stop-color="#B130FF"/>
</linearGradient>
<linearGradient id="paint12_linear_465_3337" x1="2097.5" y1="930.809" x2="302.539" y2="1009.01" gradientUnits="userSpaceOnUse">
<stop stop-color="#D630FF"/>
<stop offset="1" stop-color="#B130FF"/>
</linearGradient>
<linearGradient id="paint13_linear_465_3337" x1="2094.38" y1="940.178" x2="289.936" y2="1007.24" gradientUnits="userSpaceOnUse">
<stop stop-color="#D630FF"/>
<stop offset="1" stop-color="#B130FF"/>
</linearGradient>
<linearGradient id="paint14_linear_465_3337" x1="2091.48" y1="949.613" x2="277.563" y2="1005.26" gradientUnits="userSpaceOnUse">
<stop stop-color="#D630FF"/>
<stop offset="1" stop-color="#B130FF"/>
</linearGradient>
<linearGradient id="paint15_linear_465_3337" x1="2088.6" y1="959.133" x2="265.594" y2="1003.61" gradientUnits="userSpaceOnUse">
<stop stop-color="#D630FF"/>
<stop offset="1" stop-color="#B130FF"/>
</linearGradient>
<linearGradient id="paint16_linear_465_3337" x1="2085.56" y1="968.524" x2="253.866" y2="1001.78" gradientUnits="userSpaceOnUse">
<stop stop-color="#D630FF"/>
<stop offset="1" stop-color="#B130FF"/>
</linearGradient>
<linearGradient id="paint17_linear_465_3337" x1="2082.54" y1="977.827" x2="242.248" y2="999.63" gradientUnits="userSpaceOnUse">
<stop stop-color="#D630FF"/>
<stop offset="1" stop-color="#B130FF"/>
</linearGradient>
<linearGradient id="paint18_linear_465_3337" x1="2079.58" y1="987.32" x2="231.112" y2="997.994" gradientUnits="userSpaceOnUse">
<stop stop-color="#D630FF"/>
<stop offset="1" stop-color="#B130FF"/>
</linearGradient>
<linearGradient id="paint19_linear_465_3337" x1="2076.85" y1="996.838" x2="220.163" y2="996.221" gradientUnits="userSpaceOnUse">
<stop stop-color="#D630FF"/>
<stop offset="1" stop-color="#B130FF"/>
</linearGradient>
<linearGradient id="paint20_linear_465_3337" x1="2073.65" y1="1006.1" x2="204.531" y2="988.653" gradientUnits="userSpaceOnUse">
<stop stop-color="#D630FF"/>
<stop offset="1" stop-color="#B130FF"/>
</linearGradient>
<linearGradient id="paint21_linear_465_3337" x1="2070.78" y1="1015.46" x2="189.377" y2="980.839" gradientUnits="userSpaceOnUse">
<stop stop-color="#D630FF"/>
<stop offset="1" stop-color="#B130FF"/>
</linearGradient>
<linearGradient id="paint22_linear_465_3337" x1="2067.77" y1="1024.94" x2="175.051" y2="973.782" gradientUnits="userSpaceOnUse">
<stop stop-color="#D630FF"/>
<stop offset="1" stop-color="#B130FF"/>
</linearGradient>
<linearGradient id="paint23_linear_465_3337" x1="2064.92" y1="1034.28" x2="160.915" y2="966.055" gradientUnits="userSpaceOnUse">
<stop stop-color="#D630FF"/>
<stop offset="1" stop-color="#B130FF"/>
</linearGradient>
<linearGradient id="paint24_linear_465_3337" x1="2061.83" y1="1043.69" x2="147.757" y2="959.225" gradientUnits="userSpaceOnUse">
<stop stop-color="#D630FF"/>
<stop offset="1" stop-color="#B130FF"/>
</linearGradient>
<linearGradient id="paint25_linear_465_3337" x1="2058.83" y1="1053.08" x2="134.933" y2="952.199" gradientUnits="userSpaceOnUse">
<stop stop-color="#D630FF"/>
<stop offset="1" stop-color="#B130FF"/>
</linearGradient>
<linearGradient id="paint26_linear_465_3337" x1="2056.01" y1="1062.57" x2="122.523" y2="945.274" gradientUnits="userSpaceOnUse">
<stop stop-color="#D630FF"/>
<stop offset="1" stop-color="#B130FF"/>
</linearGradient>
<linearGradient id="paint27_linear_465_3337" x1="2052.97" y1="1071.82" x2="110.665" y2="938.321" gradientUnits="userSpaceOnUse">
<stop stop-color="#D630FF"/>
<stop offset="1" stop-color="#B130FF"/>
</linearGradient>
<linearGradient id="paint28_linear_465_3337" x1="2049.86" y1="1081.21" x2="99.3978" y2="931.769" gradientUnits="userSpaceOnUse">
<stop stop-color="#D630FF"/>
<stop offset="1" stop-color="#B130FF"/>
</linearGradient>
<linearGradient id="paint29_linear_465_3337" x1="2046.97" y1="1090.59" x2="88.4952" y2="925.22" gradientUnits="userSpaceOnUse">
<stop stop-color="#D630FF"/>
<stop offset="1" stop-color="#B130FF"/>
</linearGradient>
<linearGradient id="paint30_linear_465_3337" x1="2043.97" y1="1099.99" x2="78.0722" y2="918.981" gradientUnits="userSpaceOnUse">
<stop stop-color="#D630FF"/>
<stop offset="1" stop-color="#B130FF"/>
</linearGradient>
<linearGradient id="paint31_linear_465_3337" x1="2041.1" y1="1109.39" x2="68.0468" y2="912.799" gradientUnits="userSpaceOnUse">
<stop stop-color="#D630FF"/>
<stop offset="1" stop-color="#B130FF"/>
</linearGradient>
<clipPath id="clip0_465_3337">
<rect width="2316.49" height="754.823" fill="white" transform="translate(503.752 -644.466) rotate(41.8213)"/>
</clipPath>
</defs>
</svg>
