<svg xmlns="http://www.w3.org/2000/svg" width="46" height="65" viewBox="0 0 46 65" fill="none">
  <path d="M22.9796 19.5117C19.6021 19.516 16.2685 20.2774 13.2238 21.7395V16.2597C13.2238 13.6723 14.2516 11.1908 16.0811 9.36126C17.9107 7.53169 20.3922 6.5039 22.9796 6.5039C25.567 6.5039 28.0485 7.53169 29.8781 9.36126C31.7077 11.1908 32.7355 13.6723 32.7355 16.2597V19.5117H39.2394V16.2597C39.2394 11.9474 37.5262 7.8117 34.477 4.76241C31.4277 1.71311 27.292 0 22.9796 0C18.6673 0 14.5316 1.71311 11.4823 4.76241C8.43298 7.8117 6.71987 11.9474 6.71987 16.2597V26.3733C3.05318 30.1317 0.799941 35.043 0.342407 40.2738C-0.115127 45.5046 1.25116 50.7328 4.20965 55.0707C7.16815 59.4087 11.5366 62.5895 16.5734 64.0732C21.6102 65.5568 27.0052 65.252 31.8429 63.2105C36.6805 61.169 40.6628 57.5167 43.1139 52.8731C45.5651 48.2296 46.3341 42.8808 45.2903 37.7348C44.2466 32.5888 41.4544 27.9625 37.3877 24.6409C33.3211 21.3193 28.2304 19.507 22.9796 19.5117ZM22.9796 58.5351C19.7637 58.5351 16.6201 57.5815 13.9462 55.7948C11.2723 54.0082 9.18827 51.4689 7.95761 48.4978C6.72695 45.5267 6.4049 42.2573 7.03228 39.1032C7.65967 35.9491 9.20831 33.052 11.4823 30.778C13.7562 28.504 16.6534 26.9554 19.8075 26.328C22.9615 25.7006 26.2308 26.0227 29.2019 27.2533C32.1729 28.484 34.7125 30.5681 36.4991 33.242C38.2857 35.9159 39.2394 39.0595 39.2394 42.2753C39.2342 46.5861 37.5194 50.7189 34.4712 53.7671C31.423 56.8153 27.2904 58.5299 22.9796 58.5351Z" fill="#B73FFF"/>
  <path d="M22.9775 52.0312C25.6715 52.0312 27.8555 49.8473 27.8555 47.1533C27.8555 44.4593 25.6715 42.2754 22.9775 42.2754C20.2835 42.2754 18.0996 44.4593 18.0996 47.1533C18.0996 49.8473 20.2835 52.0312 22.9775 52.0312Z" fill="#B73FFF"/>
</svg>