<svg xmlns="http://www.w3.org/2000/svg" width="66" height="65" viewBox="0 0 66 65" fill="none">
  <path d="M63.5709 13.2806L34.3198 0.280101C33.9043 0.095539 33.4548 0 33.0002 0C32.5456 0 32.0961 0.095539 31.6806 0.280101L2.42958 13.2806C1.8554 13.5357 1.36754 13.9517 1.02491 14.4783C0.682273 15.005 0.499572 15.6195 0.499023 16.2478V48.749C0.499572 49.3773 0.682273 49.9918 1.02491 50.5185C1.36754 51.0451 1.8554 51.4612 2.42958 51.7162L31.6806 64.7167C32.0955 64.9033 32.5453 65 33.0002 65C33.4551 65 33.9049 64.9033 34.3198 64.7167L63.5709 51.7162C64.145 51.4612 64.6329 51.0451 64.9755 50.5185C65.3182 49.9918 65.5009 49.3773 65.5014 48.749V16.2478C65.5009 15.6195 65.3182 15.005 64.9755 14.4783C64.6329 13.9517 64.145 13.5357 63.5709 13.2806ZM33.0002 6.80613L54.2496 16.251L48.4383 18.8318L27.1889 9.39011L33.0002 6.80613ZM33.0002 25.6927L11.7509 16.2478L19.1872 12.9394L40.4366 22.3874L33.0002 25.6927ZM6.99926 21.2496L29.7501 31.361V56.7509L6.99926 46.6395V21.2496ZM36.2503 56.7509V31.361L59.0012 21.2496V46.6395L36.2503 56.7509Z" fill="#B73FFF"/>
</svg>