<svg xmlns="http://www.w3.org/2000/svg" width="66" height="65" viewBox="0 0 66 65" fill="none">
  <path d="M59 19.4316H48.8763C50.3532 18.6887 51.7077 17.7238 52.8932 16.5704C54.721 14.7393 55.748 12.2562 55.748 9.66692C55.748 7.07768 54.721 4.59454 52.8932 2.7634C51.0352 0.989637 48.5669 0 46 0C43.4331 0 40.9648 0.989637 39.1068 2.7634C33.7898 8.08839 33.065 18.1198 33 19.246C32.935 18.1198 32.2102 8.08839 26.8932 2.7634C25.0352 0.989637 22.5669 0 20 0C17.4331 0 14.9648 0.989637 13.1068 2.7634C11.279 4.59454 10.252 7.07768 10.252 9.66692C10.252 12.2562 11.279 14.7393 13.1068 16.5704C14.2943 17.7228 15.6499 18.6876 17.1271 19.4316H7C5.27609 19.4316 3.62289 20.1175 2.4039 21.3383C1.18491 22.5592 0.5 24.2149 0.5 25.9414V35.706C0.5 36.5693 0.842457 37.3973 1.45195 38.0077C2.06144 38.6181 2.88805 38.9609 3.75 38.9609V58.4902C3.75 60.2167 4.43491 61.8724 5.6539 63.0932C6.87289 64.3141 8.52609 65 10.25 65H55.75C57.4739 65 59.1271 64.3141 60.3461 63.0932C61.5651 61.8724 62.25 60.2167 62.25 58.4902V38.9609C63.112 38.9609 63.9386 38.6181 64.548 38.0077C65.1575 37.3973 65.5 36.5693 65.5 35.706V25.9414C65.5 24.2149 64.8151 22.5592 63.5961 21.3383C62.3771 20.1175 60.7239 19.4316 59 19.4316ZM20 58.4902H10.25V38.9609H20V58.4902ZM20 32.4511H7V25.9414H20V32.4511ZM17.7023 11.9682C17.3849 11.6697 17.1306 11.3103 16.9545 10.9113C16.7785 10.5124 16.6842 10.0819 16.6774 9.64586C16.6706 9.20977 16.7514 8.77703 16.915 8.37283C17.0786 7.96864 17.3217 7.60119 17.6297 7.2929C17.9378 6.98461 18.3045 6.74167 18.7083 6.57811C19.112 6.41456 19.5443 6.33383 19.9798 6.34091C20.4152 6.34799 20.8448 6.44284 21.243 6.61944C21.6411 6.79603 21.9998 7.05065 22.2977 7.36879C23.2696 7.32389 24.2325 7.57483 25.0597 8.08795C25.8868 8.60107 26.5396 9.35272 26.9324 10.2442C27.3252 11.1357 27.4396 12.1253 27.2605 13.0831C27.0815 14.0409 26.6174 14.9221 25.9291 15.6109C25.2409 16.2997 24.3606 16.7637 23.4041 16.9423C22.4476 17.121 21.4596 17.0058 20.5697 16.6118C19.6798 16.2177 18.9298 15.5636 18.418 14.7348C17.9063 13.906 17.6568 12.9416 17.7023 11.9682ZM39.5 58.4902H26.5V38.9609H39.5V58.4902ZM39.5 32.4511H26.5V25.9414H39.5V32.4511ZM43.7023 7.36879C44.0002 7.05065 44.3589 6.79603 44.757 6.61944C45.1552 6.44284 45.5848 6.34799 46.0202 6.34091C46.4557 6.33383 46.888 6.41456 47.2917 6.57811C47.6955 6.74167 48.0622 6.98461 48.3703 7.2929C48.6783 7.60119 48.9214 7.96864 49.085 8.37283C49.2486 8.77703 49.3294 9.20977 49.3226 9.64586C49.3158 10.0819 49.2215 10.5124 49.0455 10.9113C48.8694 11.3103 48.6151 11.6697 48.2977 11.9682C48.3432 12.9416 48.0937 13.906 47.582 14.7348C47.0702 15.5636 46.3202 16.2177 45.4303 16.6118C44.5404 17.0058 43.5524 17.121 42.5959 16.9423C41.6394 16.7637 40.7591 16.2997 40.0709 15.6109C39.3826 14.9221 38.9185 14.0409 38.7395 13.0831C38.5604 12.1253 38.6748 11.1357 39.0676 10.2442C39.4604 9.35272 40.1132 8.60107 40.9403 8.08795C41.7675 7.57483 42.7304 7.32389 43.7023 7.36879ZM55.75 58.4902H46V38.9609H55.75V58.4902ZM59 32.4511H46V25.9414H59V32.4511Z" fill="#B73FFF"/>
</svg>